Music_BallOStringWario_Ch1: ; 38000 (0e:4000)
	semitone_offset 1

.loop
	tempo 110
	wave WAVE_51
	volume 56
	note NOTE_DURATION_8, E_2, 14
	audio_wait_8
	note G_2
	audio_wait_8
	note C_3
	audio_wait_8
	note F_2
	audio_wait_8
	note A_2
	audio_wait_8
	note D_3
	audio_wait_8
	note G_2
	audio_wait_8
	note B_2
	audio_wait_8
	note E_3
	audio_wait_8
	note A_2
	audio_wait_8
	note C_3
	audio_wait_8
	note F_3
	audio_wait_8
.sub1
	note NOTE_DURATION_8, B_2, 14
	audio_wait_8
	note D_3
	audio_wait_8
	note G_3
	audio_wait_8
	note C_3
	audio_wait_8
	note E_3
	audio_wait_8
	note A_3
	audio_wait_8
	note D_3
	audio_wait_8
	note F_3
	audio_wait_8
	note B_3
	audio_wait_8
	note E_3
	audio_wait_8
	note G_3
	audio_wait_8
	note C_4
	audio_wait_8
	audio_ret

.sub2
	note NOTE_DURATION_8, F_3, 14
	audio_wait_8
	note A_3
	audio_wait_8
	note D_4
	audio_wait_8
	note E_3
	audio_wait_8
	note G_3
	audio_wait_8
	note C_4
	audio_wait_8
	note D_3
	audio_wait_8
	note F_3
	audio_wait_8
	note B_3
	audio_wait_8
	note C_3
	audio_wait_8
	note E_3
	audio_wait_8
	note A_3
	audio_wait_8
	audio_ret

.sub3
	note NOTE_DURATION_8, B_2, 14
	audio_wait_8
	note D_3
	audio_wait_8
	note G_3
	audio_wait_8
	note A_2
	audio_wait_8
	note C_3
	audio_wait_8
	note F_3
	audio_wait_8
	note G_2
	audio_wait_8
	note B_2
	audio_wait_8
	note E_3
	audio_wait_8
	note F_2
	audio_wait_8
	note A_2
	audio_wait_8
	note D_3
	audio_wait_8
	audio_ret

	note E_2
	audio_wait_8
	note G_2
	audio_wait_8
	note C_3
	audio_wait_8
	note F_2
	audio_wait_8
	note A_2
	audio_wait_8
	note D_3
	audio_wait_8
	note G_2
	audio_wait_8
	note B_2
	audio_wait_8
	note E_3
	audio_wait_8
	note A_2
	audio_wait_8
	note C_3
	audio_wait_8
	note F_3
	audio_wait_8
	audio_call .sub1
	note NOTE_DURATION_8, F_3, 14
	audio_wait_8
	note A_3
	audio_wait_8
	note D_4
	audio_wait_8
	note G_3
	audio_wait_8
	note B_3
	audio_wait_8
	note E_4
	audio_wait_8
	note A_3
	audio_wait_8
	note C_4
	audio_wait_8
	note F_4
	audio_wait_8
	note B_3
	audio_wait_8
	note D_4
	audio_wait_8
	note G_4
	audio_wait_8
	note C_4
	audio_wait_8
	note E_4
	audio_wait_8
	note A_4
	audio_wait_8
	note D_4
	audio_wait_8
	note F_4
	audio_wait_8
	note B_4
	audio_wait_8
	note E_4
	audio_wait_8
	note G_4
	audio_wait_8
	note C_5
	audio_wait_8
	note F_4
	audio_wait_8
	note A_4
	audio_wait_8
	note D_5
	audio_wait_8
	note G_4
	audio_wait_8
	note B_4
	audio_wait_8
	note E_5
	audio_wait_8
	note F_4
	audio_wait_8
	note A_4
	audio_wait_8
	note D_5
	audio_wait_8
	note G_4
	audio_wait_8
	note B_4
	audio_wait_8
	note E_5
	audio_wait_8
	note F_4
	audio_wait_8
	note A_4
	audio_wait_8
	note D_5
	audio_wait_8
	note G_4
	audio_wait_8
	note B_4
	audio_wait_8
	note E_5
	audio_wait_8
	note F_4
	audio_wait_8
	note A_4
	audio_wait_8
	note D_5
	audio_wait_8
	note E_4
	audio_wait_8
	note G_4
	audio_wait_8
	note C_5
	audio_wait_8
	note D_4
	audio_wait_8
	note F_4
	audio_wait_8
	note B_4
	audio_wait_8
	note C_4
	audio_wait_8
	note E_4
	audio_wait_8
	note A_4
	audio_wait_8
	note B_3
	audio_wait_8
	note D_4
	audio_wait_8
	note G_4
	audio_wait_8
	note C_4
	audio_wait_8
	note E_4
	audio_wait_8
	note A_4
	audio_wait_8
	note B_3
	audio_wait_8
	note D_4
	audio_wait_8
	note G_4
	audio_wait_8
	note C_4
	audio_wait_8
	note E_4
	audio_wait_8
	note A_4
	audio_wait_8
	note B_3
	audio_wait_8
	note D_4
	audio_wait_8
	note G_4
	audio_wait_8
	note A_3
	audio_wait_8
	note C_4
	audio_wait_8
	note F_4
	audio_wait_8
	note G_3
	audio_wait_8
	note B_3
	audio_wait_8
	note E_4
	audio_wait_8
	audio_call .sub2
	audio_call .sub3
	note NOTE_DURATION_8, E_2, 14
	audio_wait_8
	note G_2
	audio_wait_8
	note C_3
	audio_wait_8
	note D_2
	audio_wait_8
	note F_2
	audio_wait_8
	note B_2
	audio_wait_8
	note C_2
	audio_wait_8
	note E_2
	audio_wait_8
	note A_2
	audio_wait_8
	note B_1
	audio_wait_8
	note D_2
	audio_wait_8
	note G_2
	audio_wait_8
	note C_2
	audio_wait_8
	note E_2
	audio_wait_8
	note A_2
	audio_wait_8
	note B_1
	audio_wait_8
	note D_2
	audio_wait_8
	note G_2
	audio_wait_8
	note C_2
	audio_wait_8
	note E_2
	audio_wait_8
	note A_2
	audio_wait_8
	note B_1
	audio_wait_8
	note D_2
	audio_wait_8
	note G_2
	audio_wait_8
	audio_jump .loop
.end
	audio_end
; 0x3815c

Music_BallOStringWario_Ch2: ; 3815c (0e:415c)
	semitone_offset 1

.loop
	wave WAVE_47
	volume 56
	note NOTE_DURATION_8, C_2, 14
	audio_wait_24
	note D_2
	audio_wait_24
	note E_2
	audio_wait_24
	note F_2
	audio_wait_24
.sub1
	note NOTE_DURATION_8, G_2, 14
	audio_wait_24
	note A_2
	audio_wait_24
	note B_2
	audio_wait_24
	note C_3
	audio_wait_24
	audio_ret

.sub2
	note NOTE_DURATION_8, D_3, 14
	audio_wait_24
	note C_3
	audio_wait_24
	note B_2
	audio_wait_24
	note A_2
	audio_wait_24
	audio_ret

.sub3
	note NOTE_DURATION_8, G_2, 14
	audio_wait_24
	note F_2
	audio_wait_24
	note E_2
	audio_wait_24
	note D_2
	audio_wait_24
	audio_ret

	note C_2
	audio_wait_24
	note D_2
	audio_wait_24
	note E_2
	audio_wait_24
	note F_2
	audio_wait_24
	audio_call .sub1
	note NOTE_DURATION_8, D_3, 14
	audio_wait_24
	note E_3
	audio_wait_24
	note F_3
	audio_wait_24
	note G_3
	audio_wait_24
	note A_3
	audio_wait_24
	note B_3
	audio_wait_24
	note C_4
	audio_wait_24
	note D_4
	audio_wait_24
	note E_4
	audio_wait_24
	note D_4
	audio_wait_24
	note E_4
	audio_wait_24
	note D_4
	audio_wait_24
	note E_4
	audio_wait_24
	note D_4
	audio_wait_24
	note C_4
	audio_wait_24
	note B_3
	audio_wait_24
	note A_3
	audio_wait_24
	note G_3
	audio_wait_24
	note A_3
	audio_wait_24
	note G_3
	audio_wait_24
	note A_3
	audio_wait_24
	note G_3
	audio_wait_24
	note F_3
	audio_wait_24
	note E_3
	audio_wait_24
	audio_call .sub2
	audio_call .sub3
	note NOTE_DURATION_8, C_2, 14
	audio_wait_24
	note B_1
	audio_wait_24
	note A_1
	audio_wait_24
	note G_1
	audio_wait_24
	note A_1
	audio_wait_24
	note G_1
	audio_wait_24
	note A_1
	audio_wait_24
	note G_1
	audio_wait_24
	audio_jump .loop
.end
	audio_end
; 0x381e6

Music_BallOStringWario: ; 381e6 (0e:41e6)
	db 2, 2
	dw Music_BallOStringWario_Ch1
	dw Music_BallOStringWario_Ch2

; unused?
	dw Music_BallOStringWario_Ch1.loop
	dw Music_BallOStringWario_Ch2.loop

	dw Music_BallOStringWario_Ch1.end
	dw Music_BallOStringWario_Ch2.end
; 0x381f4
