Music_BankOfTheWildRiver_Ch1:
	semitone_offset 12
	tempo 65
	wave WAVE_48
	volume 75
	audio_wait 96
	audio_wait 96

.loop
	wave WAVE_52
	note NOTE_DURATION_12, G_3, 19
	audio_wait 18
	note NOTE_DURATION_6
	audio_wait 6
	note NOTE_DURATION_3, F_3
	audio_wait 12
	note D_3
	audio_wait 12
	note G_3
	audio_wait 12
	note NOTE_DURATION_3
	audio_wait 12
	note NOTE_DURATION_3, F_3
	audio_wait 12
	note D_3
	audio_wait 12
	note G_3
	audio_wait 96
	note NOTE_DURATION_18
	audio_wait 18
	note NOTE_DURATION_6, A_3
	audio_wait 6
	note NOTE_DURATION_3, B_3
	audio_wait 12
	note D_4
	audio_wait 12
	note C_4
	audio_wait 12
	note A_3
	audio_wait 12
	note F_3
	audio_wait 12
	note D_3
	audio_wait 12
	note G_3
	audio_wait 96
	note NOTE_DURATION_6
	audio_wait 6
	note NOTE_DURATION_3, G_4
	audio_wait 12
	note G_3
	audio_wait 6
	note F_4
	audio_wait 12
	note D_4
	audio_wait 12
	note NOTE_DURATION_6, G_3
	audio_wait 6
	note NOTE_DURATION_3, G_4
	audio_wait 12
	note G_3
	audio_wait 6
	note F_4
	audio_wait 12
	note D_4
	audio_wait 12
	note G_4
	audio_wait 96
	note G_3
	audio_wait 12
	note NOTE_DURATION_6
	audio_wait 6
	note NOTE_DURATION_6, A_3
	audio_wait 6
	note NOTE_DURATION_3, B_3
	audio_wait 12
	note D_4
	audio_wait 12
	note C_4
	audio_wait 12
	note A_3
	audio_wait 12
	note F_3
	audio_wait 12
	note D_3
	audio_wait 12
	note G_3
	audio_wait 96
	wave WAVE_50
	note NOTE_DURATION_18, F#3, 19
	audio_wait 18
	note NOTE_DURATION_3, G_3
	audio_wait 6
	note E_3
	audio_wait 12
	note C_3
	audio_wait 12
	note G_3
	audio_wait 48
	note NOTE_DURATION_18, F#3
	audio_wait 18
	note NOTE_DURATION_3, G_3
	audio_wait 6
	note E_3
	audio_wait 12
	note C_3
	audio_wait 12
	note G_3
	audio_wait 12
	note NOTE_DURATION_3
	audio_wait 36
	note NOTE_DURATION_18, C#3
	audio_wait 18
	note NOTE_DURATION_3, D_3
	audio_wait 6
	note B_2
	audio_wait 12
	note G_2
	audio_wait 12
	note D_3
	audio_wait 48
	note NOTE_DURATION_18, C#3
	audio_wait 18
	note NOTE_DURATION_6, D_3
	audio_wait 6
	note NOTE_DURATION_3, B_2
	audio_wait 12
	note G_2
	audio_wait 12
	note NOTE_DURATION_6, D_3
	audio_wait 6
	note C#3
	audio_wait 6
	note NOTE_DURATION_3, D_3
	audio_wait 36
	note NOTE_DURATION_18, F#3
	audio_wait 18
	note NOTE_DURATION_3, G_3
	audio_wait 6
	note E_3
	audio_wait 12
	note C_3
	audio_wait 12
	note NOTE_DURATION_6, G_3
	audio_wait 6
	note F#3
	audio_wait 6
	note NOTE_DURATION_3, G_3
	audio_wait 36
	note NOTE_DURATION_18, A_2
	audio_wait 18
	note NOTE_DURATION_3, G#2
	audio_wait 6
	note A_2
	audio_wait 12
	note C#3
	audio_wait 12
	note E_3
	audio_wait 12
	note G_3
	audio_wait 12
	note F#3
	audio_wait 12
	note E_3
	audio_wait 12
	note NOTE_DURATION_18, D_3
	audio_wait 18
	note NOTE_DURATION_3, D_4
	audio_wait 6
	note C_4
	audio_wait 12
	note A_3
	audio_wait 12
	note NOTE_DURATION_6, D_3
	audio_wait 6
	note NOTE_DURATION_3, D_4
	audio_wait 12
	note NOTE_DURATION_6, D_3
	audio_wait 6
	note NOTE_DURATION_3, C_4
	audio_wait 12
	note A_3
	audio_wait 12
	note D_4
	audio_wait 96
	audio_wait 96
	audio_wait 96
	wave WAVE_51
	audio_wait 12
	note NOTE_DURATION_6, D_2, 19
	audio_wait 6
	note G_2
	audio_wait 6
	note NOTE_DURATION_3, B_2
	audio_wait 24
	note C_3
	audio_wait 12
	note A_2
	audio_wait 12
	note F_2
	audio_wait 12
	note A_2
	audio_wait 12
	audio_wait 12
	note NOTE_DURATION_6, G_2
	audio_wait 6
	note B_2
	audio_wait 6
	note NOTE_DURATION_3, D_3
	audio_wait 24
	note F_3
	audio_wait 12
	note C_3
	audio_wait 12
	note A_2
	audio_wait 12
	note F_2
	audio_wait 12
	audio_jump .loop
.end
	wave WAVE_52
	note NOTE_DURATION_12, G_3, 19
	audio_wait 18
	note NOTE_DURATION_6
	audio_wait 6
	note NOTE_DURATION_3, F_3
	audio_wait 12
	note D_3
	audio_wait 12
	note G_3
	audio_wait 12
	note NOTE_DURATION_3
	audio_wait 12
	note NOTE_DURATION_3, F_3
	audio_wait 12
	note D_3
	audio_wait 3
	audio_end

Music_BankOfTheWildRiver_Ch2:
	semitone_offset 0
	wave WAVE_51
	volume 66
	audio_wait 12
	note NOTE_DURATION_6, G_2, 19
	audio_wait 6
	note B_2
	audio_wait 6
	note NOTE_DURATION_3, D_3
	audio_wait 24
	note F_3
	audio_wait 12
	note C_3
	audio_wait 12
	note A_2
	audio_wait 12
	note C_3
	audio_wait 12
.sub1
	audio_wait 12
	note NOTE_DURATION_6, B_2, 19
	audio_wait 6
	note D_3
	audio_wait 6
	note NOTE_DURATION_3, G_3
	audio_wait 24
	note A_3
	audio_wait 12
	note F_3
	audio_wait 12
	note C_3
	audio_wait 12
	note F_3
	audio_wait 12
	audio_ret

.loop
.sub2
	wave WAVE_47
	audio_wait 12
	note NOTE_DURATION_6, G_2, 19
	audio_wait 6
	note B_2
	audio_wait 6
	note NOTE_DURATION_3, D_3
	audio_wait 24
	note F_3
	audio_wait 12
	note C_3
	audio_wait 12
	note A_2
	audio_wait 12
	note C_3
	audio_wait 12
	audio_ret

	audio_call .sub2
	audio_call .sub2
	audio_wait 12
	note NOTE_DURATION_6, B_2, 19
	audio_wait 6
	note D_3
	audio_wait 6
	note NOTE_DURATION_3, G_3
	audio_wait 24
	note A_3
	audio_wait 12
	note F_3
	audio_wait 12
	note C_3
	audio_wait 12
	note A_2
	audio_wait 12
	audio_call .sub2
	audio_call .sub2
	audio_call .sub2
.sub3
	audio_wait 12
	note NOTE_DURATION_6, G_2, 19
	audio_wait 6
	note B_2
	audio_wait 6
	note NOTE_DURATION_3, D_3
	audio_wait 24
	note G_3
	audio_wait 12
	note D_3
	audio_wait 12
	note B_2
	audio_wait 12
	note D_3
	audio_wait 12
	audio_ret

.sub4
	audio_wait 12
	note NOTE_DURATION_6, C_3, 19
	audio_wait 6
	note E_3
	audio_wait 6
	note NOTE_DURATION_3, G_3
	audio_wait 24
	note C_4
	audio_wait 12
	note G_3
	audio_wait 12
	note E_3
	audio_wait 12
	note G_3
	audio_wait 12
	audio_ret

	audio_call .sub4
	audio_call .sub3
	audio_call .sub3
	audio_call .sub4
	audio_wait 12
	note NOTE_DURATION_6, A_2, 19
	audio_wait 6
	note C#3
	audio_wait 6
	note NOTE_DURATION_3, E_3
	audio_wait 24
	note A_3
	audio_wait 12
	note E_3
	audio_wait 12
	note C#3
	audio_wait 12
	note E_3
	audio_wait 12
	audio_wait 12
	note NOTE_DURATION_6, D_3
	audio_wait 6
	note F#3
	audio_wait 6
	note NOTE_DURATION_3, A_3
	audio_wait 24
	note D_4
	audio_wait 12
	note A_3
	audio_wait 12
	note F#3
	audio_wait 12
	note A_3
	audio_wait 12
	audio_wait 12
	note NOTE_DURATION_6, D_3
	audio_wait 6
	note F#3
	audio_wait 6
	note NOTE_DURATION_3, A_3
	audio_wait 24
	note D_4
	audio_wait 12
	note F#2
	audio_wait 12
	note G_2
	audio_wait 12
	note A_2
	audio_wait 12
	audio_call .sub2
	audio_call .sub1
	audio_call .sub1
	audio_wait 12
	note NOTE_DURATION_6, D_3, 19
	audio_wait 6
	note G_3
	audio_wait 6
	note NOTE_DURATION_3, B_3
	audio_wait 24
	note C_4
	audio_wait 12
	note A_3
	audio_wait 12
	note F_3
	audio_wait 12
	note C_3
	audio_wait 12
	audio_jump .loop
.end
	audio_wait 12
	note NOTE_DURATION_6, G_2, 19
	audio_wait 6
	note B_2
	audio_wait 6
	note NOTE_DURATION_3, D_3
	audio_wait 24
	note F_3
	audio_wait 12
	note C_3
	audio_wait 12
	note A_2
	audio_wait 12
	note F_2
	audio_wait 3
	audio_end

Music_BankOfTheWildRiver_Ch3:
	semitone_offset 0
	wave WAVE_61
	volume 108
	note NOTE_DURATION_3, G_1, 24
	audio_wait 36
	note D_1
	audio_wait 36
	note NOTE_DURATION_3
	audio_wait 24
.sub1
	note NOTE_DURATION_3, G_1, 24
	audio_wait 36
	note D_1
	audio_wait 36
	note NOTE_DURATION_3
	audio_wait 24
	audio_ret

.loop
	audio_call .sub1
	audio_call .sub1
	audio_call .sub1
.sub2
	note NOTE_DURATION_3, G_1, 24
	audio_wait 36
	note D_1
	audio_wait 24
	note NOTE_DURATION_3
	audio_wait 6
	note NOTE_DURATION_3, E_1
	audio_wait 6
	note F_1
	audio_wait 6
	note NOTE_DURATION_3, E_1
	audio_wait 6
	note NOTE_DURATION_3, D_1
	audio_wait 12
	audio_ret

	audio_call .sub1
	audio_call .sub1
	audio_call .sub1
.sub3
	note NOTE_DURATION_3, G_1, 24
	audio_wait 36
	note D_1
	audio_wait 24
	note G_1
	audio_wait 12
	note A_1
	audio_wait 12
	note B_1
	audio_wait 12
	audio_ret

.sub4
	note NOTE_DURATION_3, C_2, 24
	audio_wait 36
	note G_1
	audio_wait 36
	note NOTE_DURATION_3
	audio_wait 24
	audio_ret

	audio_call .sub4
	audio_call .sub1
	audio_call .sub3
	note NOTE_DURATION_3, C_2, 24
	audio_wait 36
	note G_1
	audio_wait 36
	note C_2
	audio_wait 24
	note A_1
	audio_wait 36
	note E_1
	audio_wait 36
	note A_1
	audio_wait 24
	note D_1
	audio_wait 36
	note A_1
	audio_wait 36
	note D_1
	audio_wait 24
	note NOTE_DURATION_3
	audio_wait 36
	note NOTE_DURATION_3, A_1
	audio_wait 24
	note D_1
	audio_wait 12
	note E_1
	audio_wait 12
	note F#1
	audio_wait 12
	audio_call .sub1
	audio_call .sub1
	audio_call .sub1
	audio_call .sub2
	audio_jump .loop
.end
	note NOTE_DURATION_3, G_1, 24
	audio_wait 36
	note D_1
	audio_wait 36
	note NOTE_DURATION_3
	audio_wait 3
	audio_end

Music_BankOfTheWildRiver_Ch4:
	semitone_offset 0
	wave WAVE_28
	volume 85
	note NOTE_DURATION_3, F#0, 23
	audio_wait 12
	note G#0
	audio_wait 6
	note F#0
	audio_wait 6
	note G#0
	audio_wait 12
	note F#0
	audio_wait 12
	note G#0
	audio_wait 12
	note NOTE_DURATION_3
	audio_wait 12
	note NOTE_DURATION_3, F#0
	audio_wait 12
	note G#0
	audio_wait 12
.sub1
	note NOTE_DURATION_3, F#0, 23
	audio_wait 12
	note G#0
	audio_wait 6
	note F#0
	audio_wait 6
	note G#0
	audio_wait 12
	note F#0
	audio_wait 12
	note G#0
	audio_wait 12
	note NOTE_DURATION_3
	audio_wait 12
	note NOTE_DURATION_3, F#0
	audio_wait 12
	note G#0
	audio_wait 12
	audio_ret

.loop
	audio_call .sub1
	audio_call .sub1
	audio_call .sub1
	audio_call .sub1
	audio_call .sub1
	audio_call .sub1
	audio_call .sub1
	audio_call .sub1
	audio_call .sub1
	audio_call .sub1
	audio_call .sub1
	audio_call .sub1
	audio_call .sub1
	audio_call .sub1
	audio_call .sub1
	audio_call .sub1
	audio_call .sub1
	audio_call .sub1
	audio_call .sub1
	audio_call .sub1
	audio_jump .loop
.end
	note NOTE_DURATION_3, F#0, 23
	audio_wait 12
	note G#0
	audio_wait 6
	note F#0
	audio_wait 6
	note G#0
	audio_wait 12
	note F#0
	audio_wait 12
	note G#0
	audio_wait 12
	note NOTE_DURATION_3
	audio_wait 12
	note NOTE_DURATION_3, F#0
	audio_wait 12
	note G#0
	audio_wait 3
	audio_end

Music_BankOfTheWildRiver:
	db $4, $2
	dw Music_BankOfTheWildRiver_Ch1
	dw Music_BankOfTheWildRiver_Ch2
	dw Music_BankOfTheWildRiver_Ch3
	dw Music_BankOfTheWildRiver_Ch4

; unused?
	dw Music_BankOfTheWildRiver_Ch1.loop
	dw Music_BankOfTheWildRiver_Ch2.loop
	dw Music_BankOfTheWildRiver_Ch3.loop
	dw Music_BankOfTheWildRiver_Ch4.loop

	dw Music_BankOfTheWildRiver_Ch1.end
	dw Music_BankOfTheWildRiver_Ch2.end
	dw Music_BankOfTheWildRiver_Ch3.end
	dw Music_BankOfTheWildRiver_Ch4.end
