Music_Golf_Ch1:
	semitone_offset 0

.loop
	tempo 65
	wave WAVE_18
	volume 75
	note NOTE_DURATION_6, G_2, 19
	audio_wait_6
	note A_2
	audio_wait_6
	note E_3
	audio_wait_6
	note G_2
	audio_wait_6
	note A_2
	audio_wait_6
	note E_3
	audio_wait_6
	note G_2
	audio_wait_6
	note A_2
	audio_wait_6
	note E_3
	audio_wait_6
	note G_2
	audio_wait_6
	note A_2
	audio_wait_6
	note E_3
	audio_wait_6
	note G_2
	audio_wait_6
	note A_2
	audio_wait_6
	note E_3
	audio_wait_12
	note G#2
	audio_wait_6
	note A#2
	audio_wait_6
	note F_3
	audio_wait_6
	note G#2
	audio_wait_6
	note A#2
	audio_wait_6
	note F_3
	audio_wait_6
	note G#2
	audio_wait_6
	note A#2
	audio_wait_6
	note F_3
	audio_wait_6
	note G#2
	audio_wait_6
	note A#2
	audio_wait_6
	note F_3
	audio_wait_6
	note G#2
	audio_wait_6
	note A#2
	audio_wait_6
	note F_3
	audio_wait_12
	note A_2
	audio_wait_6
	note B_2
	audio_wait_6
	note F#3
	audio_wait_6
	note A_2
	audio_wait_6
	note B_2
	audio_wait_6
	note F#3
	audio_wait_6
	note A_2
	audio_wait_12
	note A#2
	audio_wait_6
	note C_3
	audio_wait_6
	note G_3
	audio_wait_6
	note A#2
	audio_wait_6
	note C_3
	audio_wait_6
	note G_3
	audio_wait_6
	note A#2
	audio_wait_12
	note B_2
	audio_wait_6
	note C#3
	audio_wait_6
	note G#3
	audio_wait_6
	note B_2
	audio_wait_6
	note C#3
	audio_wait_6
	note G#3
	audio_wait_6
	note B_2
	audio_wait_12
	note C_3
	audio_wait_6
	note D_3
	audio_wait_6
	note A_3
	audio_wait_6
	note C_3
	audio_wait_6
	note D_3
	audio_wait_6
	note A_3
	audio_wait_6
	note C_3
	audio_wait_12
	note C#3
	audio_wait_6
	note D#3
	audio_wait_6
	note A#3
	audio_wait_6
	note C#3
	audio_wait_6
	note D#3
	audio_wait_6
	note A#3
	audio_wait_6
	note C#3
	audio_wait_6
	note D#3
	audio_wait_6
	note A#3
	audio_wait_6
	note C#3
	audio_wait_6
	note D#3
	audio_wait_6
	note A#3
	audio_wait_6
	note C#3
	audio_wait_6
	note D#3
	audio_wait_6
	note A#3
	audio_wait_12
	note D_3
	audio_wait_6
	note E_3
	audio_wait_6
	note B_3
	audio_wait_6
	note D_3
	audio_wait_6
	note E_3
	audio_wait_6
	note B_3
	audio_wait_6
	note D_3
	audio_wait_6
	note E_3
	audio_wait_6
	note B_3
	audio_wait_6
	note D_3
	audio_wait_6
	note E_3
	audio_wait_6
	note B_3
	audio_wait_6
	note D_3
	audio_wait_6
	note E_3
	audio_wait_6
	note B_3
	audio_wait_12
	note D#3
	audio_wait_6
	note F_3
	audio_wait_6
	note C_4
	audio_wait_6
	note D#3
	audio_wait_6
	note F_3
	audio_wait_6
	note C_4
	audio_wait_6
	note D#3
	audio_wait_12
	note E_3
	audio_wait_6
	note F#3
	audio_wait_6
	note C#4
	audio_wait_6
	note E_3
	audio_wait_6
	note F#3
	audio_wait_6
	note C#4
	audio_wait_6
	note E_3
	audio_wait_12
	note F_3
	audio_wait_6
	note G_3
	audio_wait_6
	note D_4
	audio_wait_6
	note F_3
	audio_wait_6
	note G_3
	audio_wait_6
	note D_4
	audio_wait_6
	note F_3
	audio_wait_12
	note F#3
	audio_wait_6
	note G#3
	audio_wait_6
	note D#4
	audio_wait_6
	note F#3
	audio_wait_6
	note G#3
	audio_wait_6
	note D#4
	audio_wait_6
	note F#3
	audio_wait_12
.sub1
	note NOTE_DURATION_6, G_3, 19
	audio_wait_6
	note A_3
	audio_wait_6
	note E_4
	audio_wait_6
	note G_3
	audio_wait_6
	note A_3
	audio_wait_6
	note E_4
	audio_wait_6
	note G_3
	audio_wait_6
	note A_3
	audio_wait_6
	note E_4
	audio_wait_6
	note G_3
	audio_wait_6
	note A_3
	audio_wait_6
	note E_4
	audio_wait_6
	note G_3
	audio_wait_6
	note A_3
	audio_wait_6
	note E_4
	audio_wait_12
	audio_ret

	note D_4
	audio_wait_3
	note E_4
	audio_wait_3
	note D_4
	audio_wait_3
	note C_4
	audio_wait_3
	note B_3
	audio_wait_36
	note D_5
	audio_wait_3
	note E_5
	audio_wait_3
	note D_5
	audio_wait_3
	note C_5
	audio_wait_3
	note B_4
	audio_wait_36
	note G_3
	audio_wait_6
	note A_3
	audio_wait_6
	note F_4
	audio_wait_6
	note G_3
	audio_wait_6
	note A_3
	audio_wait_6
	note F_4
	audio_wait_6
	note G_3
	audio_wait_6
	note A_3
	audio_wait_6
	note F_4
	audio_wait_6
	note G_3
	audio_wait_6
	note A_3
	audio_wait_6
	note F_4
	audio_wait_6
	note G_3
	audio_wait_6
	note A_3
	audio_wait_6
	note F_4
	audio_wait_12
	note E_4
	audio_wait_3
	note F_4
	audio_wait_3
	note E_4
	audio_wait_3
	note D_4
	audio_wait_3
	note C_4
	audio_wait_36
	note E_5
	audio_wait_3
	note F_5
	audio_wait_3
	note E_5
	audio_wait_3
	note D_5
	audio_wait_3
	note C_5
	audio_wait_36
	audio_call .sub1
	note NOTE_DURATION_6, A_3, 19
	audio_wait_6
	note C_4
	audio_wait_6
	note F_4
	audio_wait_6
	note A_3
	audio_wait_6
	note C_4
	audio_wait_6
	note F_4
	audio_wait_6
	note A_3
	audio_wait_12
	note G#3
	audio_wait_6
	note C_4
	audio_wait_6
	note F_4
	audio_wait_6
	note G#3
	audio_wait_6
	note C_4
	audio_wait_6
	note F_4
	audio_wait_6
	note G#3
	audio_wait_12
	note E_4
	audio_wait_6
	note F_4
	audio_wait_6
	note E_4
	audio_wait_6
	note D_4
	audio_wait_6
	note E_4
	audio_wait_6
	note D_4
	audio_wait_6
	note C_4
	audio_wait_6
	note D_4
	audio_wait_6
	note C_4
	audio_wait_6
	note B_3
	audio_wait_6
	note C_4
	audio_wait_6
	note B_3
	audio_wait_6
	note A_3
	audio_wait_6
	note G_3
	audio_wait_6
	note A_3
	audio_wait_6
	note B_3
	audio_wait_6
	note C_4
	audio_wait_96
	audio_jump .loop
.end
	audio_end

Music_Golf_Ch2:
	semitone_offset 0

.loop
	wave WAVE_47
	volume 75
	audio_wait_12
	note NOTE_DURATION_3, E_1, 19
	audio_wait_24
	note NOTE_DURATION_3
	audio_wait_24
	note NOTE_DURATION_3
	audio_wait_24
	note NOTE_DURATION_3
	audio_wait_12
	audio_wait_12
	note NOTE_DURATION_3, F_1
	audio_wait_24
	note NOTE_DURATION_3
	audio_wait_24
	note NOTE_DURATION_3
	audio_wait_24
	note NOTE_DURATION_3
	audio_wait_12
	audio_wait_12
	note NOTE_DURATION_3, F#1
	audio_wait_24
	note NOTE_DURATION_3
	audio_wait_24
	note NOTE_DURATION_3, G_1
	audio_wait_24
	note NOTE_DURATION_3
	audio_wait_12
	audio_wait_12
	note NOTE_DURATION_3, G#1
	audio_wait_24
	note NOTE_DURATION_3
	audio_wait_24
	note NOTE_DURATION_3, A_1
	audio_wait_24
	note NOTE_DURATION_3
	audio_wait_12
	audio_wait_12
	note NOTE_DURATION_3, A#1
	audio_wait_24
	note NOTE_DURATION_3
	audio_wait_24
	note NOTE_DURATION_3
	audio_wait_24
	note NOTE_DURATION_3
	audio_wait_12
	audio_wait_12
	note NOTE_DURATION_3, B_1
	audio_wait_24
	note NOTE_DURATION_3
	audio_wait_24
	note NOTE_DURATION_3
	audio_wait_24
	note NOTE_DURATION_3
	audio_wait_12
	audio_wait_12
	note NOTE_DURATION_3, C_2
	audio_wait_24
	note NOTE_DURATION_3
	audio_wait_24
	note NOTE_DURATION_3, C#2
	audio_wait_24
	note NOTE_DURATION_3
	audio_wait_12
	audio_wait_12
	note NOTE_DURATION_3, D_2
	audio_wait_24
	note NOTE_DURATION_3
	audio_wait_24
	note NOTE_DURATION_3, D#2
	audio_wait_24
	note NOTE_DURATION_3
	audio_wait_12
.sub1
	audio_wait_12
	note NOTE_DURATION_3, E_2, 19
	audio_wait_24
	note NOTE_DURATION_3
	audio_wait_24
	note NOTE_DURATION_3
	audio_wait_24
	note NOTE_DURATION_3
	audio_wait_12
	audio_ret

.sub2
	audio_wait_12
	note NOTE_DURATION_3, F_2, 19
	audio_wait_24
	note NOTE_DURATION_3
	audio_wait_24
	note NOTE_DURATION_3
	audio_wait_24
	note NOTE_DURATION_3
	audio_wait_12
	audio_ret

	audio_call .sub2
	audio_call .sub1
	audio_call .sub1
	audio_wait_12
	note NOTE_DURATION_3, C_2, 19
	audio_wait_24
	note NOTE_DURATION_3
	audio_wait_24
	note NOTE_DURATION_3
	audio_wait_24
	note NOTE_DURATION_3
	audio_wait_12
	audio_wait_12
	note NOTE_DURATION_3
	audio_wait_24
	note NOTE_DURATION_3
	audio_wait_24
	note NOTE_DURATION_3, D_2
	audio_wait_24
	note NOTE_DURATION_3
	audio_wait_12
	note NOTE_DURATION_3, C_2
	audio_wait_96
	audio_jump .loop
.end
	audio_end

Music_Golf_Ch3:
	semitone_offset 0

.loop
	wave WAVE_5E
	volume 94
	note NOTE_DURATION_3, C_1, 24
	audio_wait_12
	note G_1
	audio_wait_12
	note G_0
	audio_wait_12
	note G_1
	audio_wait_12
	note C_1
	audio_wait_12
	note G_1
	audio_wait_12
	note G_0
	audio_wait_12
	note G_1
	audio_wait_12
	note C#1
	audio_wait_12
	note G#1
	audio_wait_12
	note G#0
	audio_wait_12
	note G#1
	audio_wait_12
	note C#1
	audio_wait_12
	note G#1
	audio_wait_12
	note G#0
	audio_wait_12
	note G#1
	audio_wait_12
	note D_1
	audio_wait_12
	note A_1
	audio_wait_12
	note D_1
	audio_wait_12
	note A_1
	audio_wait_12
	note D#1
	audio_wait_12
	note A#1
	audio_wait_12
	note D#1
	audio_wait_12
	note A#1
	audio_wait_12
	note E_1
	audio_wait_12
	note B_1
	audio_wait_12
	note E_1
	audio_wait_12
	note B_1
	audio_wait_12
	note F_1
	audio_wait_12
	note C_2
	audio_wait_12
	note F_1
	audio_wait_12
	note C_2
	audio_wait_12
	note F#1
	audio_wait_12
	note C#2
	audio_wait_12
	note C#1
	audio_wait_12
	note C#2
	audio_wait_12
	note F#1
	audio_wait_12
	note C#2
	audio_wait_12
	note C#1
	audio_wait_12
	note C#2
	audio_wait_12
	note G_1
	audio_wait_12
	note D_2
	audio_wait_12
	note D_1
	audio_wait_12
	note D_2
	audio_wait_12
	note G_1
	audio_wait_12
	note D_2
	audio_wait_12
	note D_1
	audio_wait_12
	note D_2
	audio_wait_12
	note G#1
	audio_wait_12
	note D#2
	audio_wait_12
	note G#1
	audio_wait_12
	note D#2
	audio_wait_12
	note A_1
	audio_wait_12
	note E_2
	audio_wait_12
	note A_1
	audio_wait_12
	note E_2
	audio_wait_12
	note A#1
	audio_wait_12
	note F_2
	audio_wait_12
	note A#1
	audio_wait_12
	note F_2
	audio_wait_12
	note B_1
	audio_wait_12
	note F#2
	audio_wait_12
	note B_1
	audio_wait_12
	note F#2
	audio_wait_12
.sub1
	note NOTE_DURATION_3, C_2, 24
	audio_wait_12
	note G_2
	audio_wait_12
	note G_1
	audio_wait_12
	note G_2
	audio_wait_12
	note C_2
	audio_wait_12
	note G_2
	audio_wait_12
	note G_1
	audio_wait_12
	note G_2
	audio_wait_12
	audio_ret

.sub2
	note NOTE_DURATION_3, D_2, 24
	audio_wait_12
	note G_2
	audio_wait_12
	note G_1
	audio_wait_12
	note G_2
	audio_wait_12
	note D_2
	audio_wait_12
	note G_2
	audio_wait_12
	note G_1
	audio_wait_12
	note G_2
	audio_wait_12
	audio_ret

	audio_call .sub2
	audio_call .sub1
	note NOTE_DURATION_3, C_2, 24
	audio_wait_12
	note G_2
	audio_wait_12
	note C_2
	audio_wait_12
	note G_2
	audio_wait_12
	note A#1
	audio_wait_12
	note G_2
	audio_wait_12
	note A#1
	audio_wait_12
	note G_2
	audio_wait_12
	note A_1
	audio_wait_12
	note F_2
	audio_wait_12
	note A_1
	audio_wait_12
	note F_2
	audio_wait_12
	note G#1
	audio_wait_12
	note F_2
	audio_wait_12
	note G#1
	audio_wait_12
	note F_2
	audio_wait_12
	note G_1
	audio_wait_12
	note E_2
	audio_wait_12
	note G_1
	audio_wait_12
	note E_2
	audio_wait_12
	note G_1
	audio_wait_12
	note F_2
	audio_wait_12
	note G_1
	audio_wait_12
	note F_2
	audio_wait_12
	note E_2
	audio_wait_60
	note NOTE_DURATION_6, G_1
	audio_wait_6
	note F_1
	audio_wait_6
	note E_1
	audio_wait_6
	note F_1
	audio_wait_6
	note D_1
	audio_wait_12
	audio_jump .loop
.end
	audio_end

Music_Golf:
	db 3, 2
	dw Music_Golf_Ch1
	dw Music_Golf_Ch2
	dw Music_Golf_Ch3

; unused?
	dw Music_Golf_Ch1.loop
	dw Music_Golf_Ch2.loop
	dw Music_Golf_Ch3.loop

	dw Music_Golf_Ch1.end
	dw Music_Golf_Ch2.end
	dw Music_Golf_Ch3.end
