Music_Intro_Ch1:
	semitone_offset 0
	tempo 90
	wave WAVE_55
	volume 70
	note NOTE_DURATION_4, E_3, 18
	audio_wait_6
	note F_3
	audio_wait_6
	note E_3
	audio_wait_6
	note C_3
	audio_wait_6
	note A_2
	audio_wait_6
	note F_2
	audio_wait_6
	note A_2
	audio_wait_6
	note C_3
	audio_wait_6
	note E_3
	audio_wait_6
	note F_3
	audio_wait_6
	note E_3
	audio_wait_6
	note C_3
	audio_wait_6
	note A_2
	audio_wait_6
	note F_2
	audio_wait_6
	note A_2
	audio_wait_6
	note C_3
	audio_wait_6
.sub1
	note NOTE_DURATION_4, E_3, 18
	audio_wait_6
	note F_3
	audio_wait_6
	note E_3
	audio_wait_6
	note C_3
	audio_wait_6
	note A_2
	audio_wait_6
	note F_2
	audio_wait_6
	note A_2
	audio_wait_6
	note C_3
	audio_wait_6
	note E_3
	audio_wait_6
	note F_3
	audio_wait_6
	note E_3
	audio_wait_6
	note C_3
	audio_wait_6
	note A_2
	audio_wait_6
	note F_2
	audio_wait_6
	note A_2
	audio_wait_6
	note C_3
	audio_wait_6
	audio_ret

	audio_call .sub1
	audio_call .sub1
	volume 75
	note NOTE_DURATION_4, E_3, 18
	audio_wait_6
	note F_3
	audio_wait_6
	note E_3
	audio_wait_6
	note C_3
	audio_wait_6
	note A_2
	audio_wait_6
	note F_2
	audio_wait_6
	note A_2
	audio_wait_6
	note C_3
	audio_wait_6
	note E_3
	audio_wait_6
	note F_3
	audio_wait_6
	note E_3
	audio_wait_6
	note C_3
	audio_wait_6
	note A_2
	audio_wait_6
	note F_2
	audio_wait_6
	note A_2
	audio_wait_6
	note C_3
	audio_wait_6
	note E_3
	audio_wait_6
	note F_3
	audio_wait_6
	note E_3
	audio_wait_6
	note C_3
	audio_wait_6
	note A_2
	audio_wait_6
	note F_2
	audio_wait_6
	note A_2
	audio_wait_6
	note C_3
	audio_wait_6
	note E_3
	audio_wait_6
	note F_3
	audio_wait_6
	note E_3
	audio_wait_6
	note C_3
	audio_wait_6
	note A_2
	audio_wait_6
	note F_2
	audio_wait_6
	note A_2
	audio_wait_6
	note C_3
	audio_wait_6
.sub2
	note NOTE_DURATION_4, G_3, 18
	audio_wait_6
	note G#3
	audio_wait_6
	note G_3
	audio_wait_6
	note D#3
	audio_wait_6
	note C_3
	audio_wait_6
	note G#2
	audio_wait_6
	note C_3
	audio_wait_6
	note D#3
	audio_wait_6
	note G_3
	audio_wait_6
	note G#3
	audio_wait_6
	note G_3
	audio_wait_6
	note D#3
	audio_wait_6
	note C_3
	audio_wait_6
	note G#2
	audio_wait_6
	note C_3
	audio_wait_6
	note D#3
	audio_wait_6
	audio_ret

	audio_call .sub2
	note NOTE_DURATION_4, A#3, 18
	audio_wait_6
	note B_3
	audio_wait_6
	note A#3
	audio_wait_6
	note F#3
	audio_wait_6
	note D#3
	audio_wait_6
	note B_2
	audio_wait_6
	note D#3
	audio_wait_6
	note F#3
	audio_wait_6
	note A#3
	audio_wait_6
	note B_3
	audio_wait_6
	note A#3
	audio_wait_6
	note F#3
	audio_wait_6
	note D#3
	audio_wait_6
	note B_2
	audio_wait_6
	note D#3
	audio_wait_6
	note F#3
	audio_wait_6
	note A_3
	audio_wait_6
	note A#3
	audio_wait_6
	note A_3
	audio_wait_6
	note F_3
	audio_wait_6
	note D_3
	audio_wait_6
	note A#2
	audio_wait_6
	note D_3
	audio_wait_6
	note F_3
	audio_wait_6
	note A_3
	audio_wait_6
	note A#3
	audio_wait_6
	note A_3
	audio_wait_6
	note F_3
	audio_wait_6
	note D_3
	audio_wait_6
	note A#2
	audio_wait_6
	note D_3
	audio_wait_6
	note F_3
	audio_wait_6
	note G#3
	audio_wait_6
	note A_3
	audio_wait_6
	note G#3
	audio_wait_6
	note E_3
	audio_wait_6
	note C#3
	audio_wait_6
	note A_2
	audio_wait_6
	note C#3
	audio_wait_6
	note E_3
	audio_wait_6
	note G#3
	audio_wait_6
	note A_3
	audio_wait_6
	note G#3
	audio_wait_6
	note E_3
	audio_wait_6
	note C#3
	audio_wait_6
	note A_2
	audio_wait_6
	note C#3
	audio_wait_6
	note E_3
	audio_wait_6
	note G_3
	audio_wait_6
	note G#3
	audio_wait_6
	note G_3
	audio_wait_6
	note F#3
	audio_wait_6
	note F_3
	audio_wait_6
	note E_3
	audio_wait_6
	note F_3
	audio_wait_6
	note F#3
	audio_wait_6
	note G_3
	audio_wait_6
	note G#3
	audio_wait_6
	note G_3
	audio_wait_6
	note F#3
	audio_wait_6
	note F_3
	audio_wait_6
	note E_3
	audio_wait_6
	note F_3
	audio_wait_6
	note F#3
	audio_wait_6
	tempo 69
	wave WAVE_1A
	vibrato_speed 20
	vibrato_delay 10
	vibrato_amplitude 30
	vibrato_disabled FALSE
	note NOTE_DURATION_12, G_3
	audio_wait_12
	note NOTE_DURATION_6, F#3
	audio_wait_6
	note F_3
	audio_wait_6
	note NOTE_DURATION_4, E_3
	audio_wait_12
	note D#3
	audio_wait_12
	note D_3
	audio_wait_12
	note C#3
	audio_wait_12
	note C_3
	audio_wait_12
	note B_2
	audio_wait_12
	tempo 60
	note A#2
	audio_wait_12
	note A_2
	audio_wait_12
	note G#2
	audio_wait_12
	note G_2
	audio_wait_12
	note NOTE_DURATION_48, C_3
	audio_wait_48
	note B_2
	audio_wait_48
	audio_end

Music_Intro_Ch2:
	semitone_offset 0
	wave WAVE_10
	volume 47
	audio_wait_12
	note NOTE_DURATION_6, E_3, 14
	audio_wait_6
	note F_3
	audio_wait_6
	note E_3
	audio_wait_6
	note C_3
	audio_wait_6
	note A_2
	audio_wait_6
	note F_2
	audio_wait_6
	note A_2
	audio_wait_6
	note C_3
	audio_wait_6
	note E_3
	audio_wait_6
	note F_3
	audio_wait_6
	note E_3
	audio_wait_6
	note C_3
	audio_wait_6
	note A_2
	audio_wait_6
	note F_2
	audio_wait_6
.sub1
	note NOTE_DURATION_6, A_2, 14
	audio_wait_6
	note C_3
	audio_wait_6
	note E_3
	audio_wait_6
	note F_3
	audio_wait_6
	note E_3
	audio_wait_6
	note C_3
	audio_wait_6
	note A_2
	audio_wait_6
	note F_2
	audio_wait_6
	note A_2
	audio_wait_6
	note C_3
	audio_wait_6
	note E_3
	audio_wait_6
	note F_3
	audio_wait_6
	note E_3
	audio_wait_6
	note C_3
	audio_wait_6
	note A_2
	audio_wait_6
	note F_2
	audio_wait_6
	audio_ret

	audio_call .sub1
	audio_call .sub1
	audio_call .sub1
	audio_call .sub1
	note NOTE_DURATION_6, A_2, 14
	audio_wait_6
	note C_3
	audio_wait_6
	note G_3
	audio_wait_6
	note G#3
	audio_wait_6
	note G_3
	audio_wait_6
	note D#3
	audio_wait_6
	note C_3
	audio_wait_6
	note G#2
	audio_wait_6
	note C_3
	audio_wait_6
	note D#3
	audio_wait_6
	note G_3
	audio_wait_6
	note G#3
	audio_wait_6
	note G_3
	audio_wait_6
	note D#3
	audio_wait_6
	note C_3
	audio_wait_6
	note G#2
	audio_wait_6
	note C_3
	audio_wait_6
	note D#3
	audio_wait_6
	note G_3
	audio_wait_6
	note G#3
	audio_wait_6
	note G_3
	audio_wait_6
	note D#3
	audio_wait_6
	note C_3
	audio_wait_6
	note G#2
	audio_wait_6
	note C_3
	audio_wait_6
	note D#3
	audio_wait_6
	note G_3
	audio_wait_6
	note G#3
	audio_wait_6
	note G_3
	audio_wait_6
	note D#3
	audio_wait_6
	note C_3
	audio_wait_6
	note G#2
	audio_wait_6
	note C_3
	audio_wait_6
	note D#3
	audio_wait_6
	note A#3
	audio_wait_6
	note B_3
	audio_wait_6
	note A#3
	audio_wait_6
	note F#3
	audio_wait_6
	note D#3
	audio_wait_6
	note B_2
	audio_wait_6
	note D#3
	audio_wait_6
	note F#3
	audio_wait_6
	note A#3
	audio_wait_6
	note B_3
	audio_wait_6
	note A#3
	audio_wait_6
	note F#3
	audio_wait_6
	note D#3
	audio_wait_6
	note B_2
	audio_wait_6
	note D_3
	audio_wait_6
	note F_3
	audio_wait_6
	note A_3
	audio_wait_6
	note A#3
	audio_wait_6
	note A_3
	audio_wait_6
	note F_3
	audio_wait_6
	note D_3
	audio_wait_6
	note A#2
	audio_wait_6
	note D_3
	audio_wait_6
	note F_3
	audio_wait_6
	note A_3
	audio_wait_6
	note A#3
	audio_wait_6
	note A_3
	audio_wait_6
	note F_3
	audio_wait_6
	note D_3
	audio_wait_6
	note A#2
	audio_wait_6
	note C#3
	audio_wait_6
	note E_3
	audio_wait_6
	note G#3
	audio_wait_6
	note A_3
	audio_wait_6
	note G#3
	audio_wait_6
	note E_3
	audio_wait_6
	note C#3
	audio_wait_6
	note A_2
	audio_wait_6
	note C#3
	audio_wait_6
	note E_3
	audio_wait_6
	note G#3
	audio_wait_6
	note A_3
	audio_wait_6
	note G#3
	audio_wait_6
	note E_3
	audio_wait_6
	note C#3
	audio_wait_6
	note A_2
	audio_wait_6
	note C#3
	audio_wait_6
	note E_3
	audio_wait_6
	note G_3
	audio_wait_6
	note G#3
	audio_wait_6
	note G_3
	audio_wait_6
	note F#3
	audio_wait_6
	note F_3
	audio_wait_6
	note E_3
	audio_wait_6
	note F_3
	audio_wait_6
	note F#3
	audio_wait_6
	note G_3
	audio_wait_6
	note G#3
	audio_wait_6
	note G_3
	audio_wait_6
	note F#3
	audio_wait_6
	note F_3
	audio_wait_6
	note E_3
	audio_wait_6
	note F_3
	audio_wait_6
	note F#3
	audio_wait_90
	audio_wait_48
	volume 75
	vibrato_speed 20
	vibrato_delay 10
	vibrato_amplitude 30
	vibrato_disabled FALSE
	note NOTE_DURATION_48, F#2, 18
	audio_wait_48
	note F_2
	audio_wait_48
	audio_end

Music_Intro_Ch3:
	semitone_offset 0
	wave WAVE_62
	volume 108
	audio_wait_96
	audio_wait_96
	audio_wait_96
	audio_wait_48
	note NOTE_DURATION_48, D_0, 24
	audio_wait_48
	wave WAVE_61
	note NOTE_DURATION_4, G_0
	audio_wait_24
	note D_0
	audio_wait_12
	note G_0
	audio_wait_24
	note D_0
	audio_wait_12
	note G_0
	audio_wait_24
	note D_0
	audio_wait_12
	note G_0
	audio_wait_24
	note D_0
	audio_wait_12
	note G_0
	audio_wait_12
	note NOTE_DURATION_4
	audio_wait_12
	note NOTE_DURATION_4, G#0
	audio_wait_12
	note A_0
	audio_wait_12
	note A#0
	audio_wait_24
	note F_0
	audio_wait_12
	note A#0
	audio_wait_24
	note F_0
	audio_wait_12
	note A#0
	audio_wait_24
	note F_0
	audio_wait_12
	note A#0
	audio_wait_24
	note F_0
	audio_wait_12
	note A#0
	audio_wait_12
	note NOTE_DURATION_4
	audio_wait_12
	note NOTE_DURATION_4, B_0
	audio_wait_12
	note C_1
	audio_wait_12
	note C#1
	audio_wait_24
	note G#0
	audio_wait_12
	note C#1
	audio_wait_24
	note G#0
	audio_wait_12
	note C#1
	audio_wait_12
	note G#0
	audio_wait_12
	note C_1
	audio_wait_24
	note G_0
	audio_wait_12
	note C_1
	audio_wait_24
	note G_0
	audio_wait_12
	note C_1
	audio_wait_12
	note G_0
	audio_wait_12
	note B_0
	audio_wait_24
	note F#0
	audio_wait_12
	note B_0
	audio_wait_24
	note F#0
	audio_wait_12
	note B_0
	audio_wait_12
	note F#0
	audio_wait_12
	note A#0
	audio_wait_24
	note F_0
	audio_wait_12
	note A#0
	audio_wait_24
	note F_0
	audio_wait_12
	note A#0
	audio_wait_12
	note F_0
	audio_wait_12
	wave WAVE_60
	vibrato_speed 20
	vibrato_delay 10
	vibrato_amplitude 30
	vibrato_disabled FALSE
	note NOTE_DURATION_24, A#1
	audio_wait_24
	note NOTE_DURATION_4, A_1
	audio_wait_12
	note G#1
	audio_wait_12
	note G_1
	audio_wait_12
	note F#1
	audio_wait_12
	note F_1
	audio_wait_12
	note E_1
	audio_wait_12
	note D#1
	audio_wait_12
	note D_1
	audio_wait_12
	note C#1
	audio_wait_12
	note C_1
	audio_wait_12
	note NOTE_DURATION_48, G#0, 18
	audio_wait_48
	note G_0
	audio_wait_48
	audio_end

Music_Intro:
	db 3, 0
	dw Music_Intro_Ch1
	dw Music_Intro_Ch2
	dw Music_Intro_Ch3
