Music_InvisibleWario_Ch1: ; 37b8c (0d:7b8c)
	semitone_offset 0

.loop
	tempo 45
	wave WAVE_52
	volume 94
	note NOTE_DURATION_3, F_2, 19
	audio_wait_3
	note F#2
	audio_wait_3
	note G_2
	audio_wait_3
	note G#2
	audio_wait_3
	note F_2
	audio_wait_3
	note F#2
	audio_wait_3
	note G_2
	audio_wait_3
	note G#2
	audio_wait_72
	audio_wait_3
	note F_3
	audio_wait_3
	note F#3
	audio_wait_3
	note G_3
	audio_wait_3
	note G#3
	audio_wait_3
	note F_3
	audio_wait_3
	note F#3
	audio_wait_3
	note G_3
	audio_wait_3
	note G#3
	audio_wait_72
	audio_wait_3
	note F_4
	audio_wait_3
	note F#4
	audio_wait_3
	note G_4
	audio_wait_3
	note G#4
	audio_wait_3
	note F_4
	audio_wait_3
	note F#4
	audio_wait_3
	note G_4
	audio_wait_3
	note G#4
	audio_wait_72
	audio_wait_3
	audio_wait_96
	note F#2
	audio_wait_3
	note G_2
	audio_wait_3
	note G#2
	audio_wait_3
	note A_2
	audio_wait_3
	note F#2
	audio_wait_3
	note G_2
	audio_wait_3
	note G#2
	audio_wait_3
	note A_2
	audio_wait_72
	audio_wait_3
	note F#3
	audio_wait_3
	note G_3
	audio_wait_3
	note G#3
	audio_wait_3
	note A_3
	audio_wait_3
	note F#3
	audio_wait_3
	note G_3
	audio_wait_3
	note G#3
	audio_wait_3
	note A_3
	audio_wait_72
	audio_wait_3
	note F#4
	audio_wait_3
	note G_4
	audio_wait_3
	note G#4
	audio_wait_3
	note A_4
	audio_wait_3
	note F#4
	audio_wait_3
	note G_4
	audio_wait_3
	note G#4
	audio_wait_3
	note A_4
	audio_wait_72
	audio_wait_3
	audio_wait_96
	audio_jump .loop
.end
	audio_end
; 0x37c02

Music_InvisibleWario_Ch2: ; 37c02 (0d:7c02)
	semitone_offset 0

.loop
	wave WAVE_48
	volume 94
	note NOTE_DURATION_3, C#2, 19
	audio_wait_3
	note D_2
	audio_wait_3
	note D#2
	audio_wait_3
	note E_2
	audio_wait_3
	note C#2
	audio_wait_3
	note D_2
	audio_wait_3
	note D#2
	audio_wait_3
	note E_2
	audio_wait_72
	audio_wait_3
	note C#3
	audio_wait_3
	note D_3
	audio_wait_3
	note D#3
	audio_wait_3
	note E_3
	audio_wait_3
	note C#3
	audio_wait_3
	note D_3
	audio_wait_3
	note D#3
	audio_wait_3
	note E_3
	audio_wait_72
	audio_wait_3
	note C#4
	audio_wait_3
	note D_4
	audio_wait_3
	note D#4
	audio_wait_3
	note E_4
	audio_wait_3
	note C#4
	audio_wait_3
	note D_4
	audio_wait_3
	note D#4
	audio_wait_3
	note E_4
	audio_wait_72
	audio_wait_3
	audio_wait_96
	note D_2
	audio_wait_3
	note D#2
	audio_wait_3
	note E_2
	audio_wait_3
	note F_2
	audio_wait_3
	note D_2
	audio_wait_3
	note D#2
	audio_wait_3
	note E_2
	audio_wait_3
	note F_2
	audio_wait_72
	audio_wait_3
	note D_3
	audio_wait_3
	note D#3
	audio_wait_3
	note E_3
	audio_wait_3
	note F_3
	audio_wait_3
	note D_3
	audio_wait_3
	note D#3
	audio_wait_3
	note E_3
	audio_wait_3
	note F_3
	audio_wait_72
	audio_wait_3
	note D_4
	audio_wait_3
	note D#4
	audio_wait_3
	note E_4
	audio_wait_3
	note F_4
	audio_wait_3
	note D_4
	audio_wait_3
	note D#4
	audio_wait_3
	note E_4
	audio_wait_3
	note F_4
	audio_wait_72
	audio_wait_3
	audio_wait_96
	audio_jump .loop
.end
	audio_end
; 0x37c76

Music_InvisibleWario_Ch3: ; 37c76 (0d:7c76)
	semitone_offset 0

.loop
	wave WAVE_60
	volume 94
	audio_wait_6
	note NOTE_DURATION_3, F_2, 19
	audio_wait_3
	note F#2
	audio_wait_3
	note G_2
	audio_wait_3
	note G#2
	audio_wait_3
	note F_2
	audio_wait_3
	note F#2
	audio_wait_3
	note G_2
	audio_wait_3
	note G#2
	audio_wait_68
	audio_wait_1
	audio_wait_6
	note F_3
	audio_wait_3
	note F#3
	audio_wait_3
	note G_3
	audio_wait_3
	note G#3
	audio_wait_3
	note F_3
	audio_wait_3
	note F#3
	audio_wait_3
	note G_3
	audio_wait_3
	note G#3
	audio_wait_68
	audio_wait_1
	audio_wait_6
	note F_4
	audio_wait_3
	note F#4
	audio_wait_3
	note G_4
	audio_wait_3
	note G#4
	audio_wait_3
	note F_4
	audio_wait_3
	note F#4
	audio_wait_3
	note G_4
	audio_wait_3
	note G#4
	audio_wait_68
	audio_wait_1
	audio_wait_96
	audio_wait_6
	note F#2
	audio_wait_3
	note G_2
	audio_wait_3
	note G#2
	audio_wait_3
	note A_2
	audio_wait_3
	note F#2
	audio_wait_3
	note G_2
	audio_wait_3
	note G#2
	audio_wait_3
	note A_2
	audio_wait_68
	audio_wait_1
	audio_wait_6
	note F#3
	audio_wait_3
	note G_3
	audio_wait_3
	note G#3
	audio_wait_3
	note A_3
	audio_wait_3
	note F#3
	audio_wait_3
	note G_3
	audio_wait_3
	note G#3
	audio_wait_3
	note A_3
	audio_wait_68
	audio_wait_1
	audio_wait_6
	note F#4
	audio_wait_3
	note G_4
	audio_wait_3
	note G#4
	audio_wait_3
	note A_4
	audio_wait_3
	note F#4
	audio_wait_3
	note G_4
	audio_wait_3
	note G#4
	audio_wait_3
	note A_4
	audio_wait_68
	audio_wait_1
	audio_wait_96
	audio_jump .loop
.end
	audio_end
; 0x37cf0

Music_InvisibleWario: ; 37cf0 (d:7cf0)
	db $3, $2
	dw Music_InvisibleWario_Ch1
	dw Music_InvisibleWario_Ch2
	dw Music_InvisibleWario_Ch3

; unused?
	dw Music_InvisibleWario_Ch1.loop
	dw Music_InvisibleWario_Ch2.loop
	dw Music_InvisibleWario_Ch3.loop

	dw Music_InvisibleWario_Ch1.end
	dw Music_InvisibleWario_Ch2.end
	dw Music_InvisibleWario_Ch3.end
