Music_MusicBoxes_Ch1:
	semitone_offset 12
	tempo 50
	wave WAVE_19
	volume 75
	note NOTE_DURATION_4, C#4, 19
	audio_wait 24
	note NOTE_DURATION_4
	audio_wait 12
	note NOTE_DURATION_4, D_4
	audio_wait 12
	note E_4
	audio_wait 36
	note B_3
	audio_wait 12
	note A_3
	audio_wait 24
	note NOTE_DURATION_4
	audio_wait 12
	note NOTE_DURATION_4, B_3
	audio_wait 12
	note C#4
	audio_wait 36
	note G#3
	audio_wait 12
	note F#3
	audio_wait 24
	note G#3
	audio_wait 12
	note A_3
	audio_wait 12
	note E_3
	audio_wait 24
	note G#3
	audio_wait 12
	note A_3
	audio_wait 12
	note D_3
	audio_wait 12
	note C#4
	audio_wait 12
	note B_3
	audio_wait 12
	note A_3
	audio_wait 12
	note B_3
	audio_wait 36
	note E_3
	audio_wait 12
	note C#4
	audio_wait 24
	note NOTE_DURATION_4
	audio_wait 12
	note NOTE_DURATION_4, D_4
	audio_wait 12
	note E_4
	audio_wait 36
	note B_3
	audio_wait 12
	note A_3
	audio_wait 24
	note C#4
	audio_wait 12
	note A_4
	audio_wait 12
	note G#4
	audio_wait 36
	note E_4
	audio_wait 12
	note F#4
	audio_wait 12
	note D_4
	audio_wait 12
	note A_3
	audio_wait 12
	note F#3
	audio_wait 12
	note NOTE_DURATION_4
	audio_wait 24
	note NOTE_DURATION_4, G#3
	audio_wait 24
	note NOTE_DURATION_72, A_3
	audio_wait 72
	audio_end

Music_MusicBoxes_Ch2:
	semitone_offset 12
	wave WAVE_0F
	volume 75
	note NOTE_DURATION_4, A_3, 19
	audio_wait 36
	note NOTE_DURATION_4
	audio_wait 12
	note NOTE_DURATION_4, G#3
	audio_wait 12
	note F#3
	audio_wait 12
	note G#3
	audio_wait 24
	note F#3
	audio_wait 36
	note NOTE_DURATION_4
	audio_wait 12
	note NOTE_DURATION_4, E_3
	audio_wait 12
	note F#3
	audio_wait 12
	note E_3
	audio_wait 24
	note D_3
	audio_wait 24
	note E_3
	audio_wait 12
	note F#3
	audio_wait 12
	note C#3
	audio_wait 24
	note E_3
	audio_wait 12
	note F#3
	audio_wait 12
	note B_2
	audio_wait 12
	note A_3
	audio_wait 12
	note G#3
	audio_wait 12
	note F#3
	audio_wait 12
	note G#3
	audio_wait 36
	note E_3
	audio_wait 12
	note A_3
	audio_wait 36
	note NOTE_DURATION_4
	audio_wait 12
	note NOTE_DURATION_4, G#3
	audio_wait 12
	note F#3
	audio_wait 12
	note G#3
	audio_wait 24
	note F#3
	audio_wait 24
	note A_3
	audio_wait 12
	note C#4
	audio_wait 12
	note B_3
	audio_wait 36
	note C#4
	audio_wait 12
	note D_4
	audio_wait 12
	note A_3
	audio_wait 12
	note F#3
	audio_wait 12
	note D_3
	audio_wait 12
	note B_2
	audio_wait 24
	note E_3
	audio_wait 12
	note D_3
	audio_wait 12
	note C#3
	audio_wait 12
	note D_3
	audio_wait 12
	note B_2
	audio_wait 12
	note C#3
	audio_wait 12
	note NOTE_DURATION_24, A_2
	audio_wait 24
	audio_end

Music_MusicBoxes_Ch3:
	semitone_offset 12
	wave WAVE_5E
	volume 94
	note NOTE_DURATION_3, A_2, 19
	audio_wait 12
	note C#3
	audio_wait 12
	note E_3
	audio_wait 24
	note G#2
	audio_wait 12
	note B_2
	audio_wait 12
	note E_3
	audio_wait 24
	note F#2
	audio_wait 12
	note A_2
	audio_wait 12
	note C#3
	audio_wait 24
	note E_2
	audio_wait 12
	note G#2
	audio_wait 12
	note C#3
	audio_wait 24
	note D_2
	audio_wait 12
	note F#2
	audio_wait 12
	note A_2
	audio_wait 24
	note C#2
	audio_wait 12
	note E_2
	audio_wait 12
	note A_2
	audio_wait 24
	note B_1
	audio_wait 12
	note D_2
	audio_wait 12
	note F#2
	audio_wait 24
	note E_2
	audio_wait 12
	note G#2
	audio_wait 12
	note B_2
	audio_wait 24
	note A_2
	audio_wait 12
	note C#3
	audio_wait 12
	note E_3
	audio_wait 24
	note G#2
	audio_wait 12
	note B_2
	audio_wait 12
	note E_3
	audio_wait 24
	note F#2
	audio_wait 12
	note A_2
	audio_wait 12
	note C#3
	audio_wait 24
	note C#2
	audio_wait 12
	note E_2
	audio_wait 12
	note G#2
	audio_wait 24
	note D_2
	audio_wait 12
	note F#2
	audio_wait 12
	note A_2
	audio_wait 24
	note D_3
	audio_wait 12
	note E_2
	audio_wait 12
	note E_3
	audio_wait 12
	note E_2
	audio_wait 12
	audio_wait 12
	note A_1
	audio_wait 12
	note D_2
	audio_wait 12
	note E_2
	audio_wait 12
	note NOTE_DURATION_24, A_2
	audio_wait 24
	audio_end

Music_MusicBoxes:
	db 3, 0
	dw Music_MusicBoxes_Ch1
	dw Music_MusicBoxes_Ch2
	dw Music_MusicBoxes_Ch3
