Music_OutOfTheWoodsNight_Ch1: ; 32ab2 (c:6ab2)
	semitone_offset 0
	tempo 45
	wave WAVE_52
	volume 75
	note NOTE_DURATION_3, D_3, 19
	audio_wait_12
	note A_3
	audio_wait_12
	note F#3
	audio_wait_12
	note A_3
	audio_wait_12
	note D_4
	audio_wait_48
	note C_3
	audio_wait_12
	note G_3
	audio_wait_12
	note E_3
	audio_wait_12
	note G_3
	audio_wait_12
	note C_4
	audio_wait_48
	note D_3
	audio_wait_12
	note A_3
	audio_wait_12
	note F#3
	audio_wait_12
	note A_3
	audio_wait_12
	note D_5
	audio_wait_48
	note C_3
	audio_wait_12
	note G_3
	audio_wait_12
	note E_3
	audio_wait_12
	note G_3
	audio_wait_12
	note C_5
	audio_wait_48

.loop
	wave WAVE_17
	vibrato_speed 20
	vibrato_delay 5
	vibrato_amplitude 10
	vibrato_disabled FALSE
	volume 75
	note NOTE_DURATION_15, D_1, 19
	audio_wait_18
	note NOTE_DURATION_6
	audio_wait_6
	note NOTE_DURATION_3, C_1
	audio_wait_12
	note A_0
	audio_wait_12
	note D_1
	audio_wait_12
	note NOTE_DURATION_3
	audio_wait_12
	note NOTE_DURATION_3, C_1
	audio_wait_12
	note A_0
	audio_wait_12
	note D_1
	audio_wait_96
	note NOTE_DURATION_18
	audio_wait_18
	note NOTE_DURATION_6, E_1
	audio_wait_6
	note NOTE_DURATION_3, F#1
	audio_wait_12
	note A_1
	audio_wait_12
	note G_1
	audio_wait_12
	note E_1
	audio_wait_12
	note C_1
	audio_wait_12
	note A_0
	audio_wait_12
	note D_1
	audio_wait_96
	note NOTE_DURATION_15, D_2
	audio_wait_18
	note NOTE_DURATION_6
	audio_wait_6
	note NOTE_DURATION_3, C_2
	audio_wait_12
	note A_1
	audio_wait_12
	note D_2
	audio_wait_12
	note NOTE_DURATION_3
	audio_wait_12
	note NOTE_DURATION_3, C_2
	audio_wait_12
	note A_1
	audio_wait_12
	note D_2
	audio_wait_96
	note NOTE_DURATION_18
	audio_wait_18
	note NOTE_DURATION_6, E_2
	audio_wait_6
	note NOTE_DURATION_3, F#2
	audio_wait_12
	note A_2
	audio_wait_12
	note G_2
	audio_wait_12
	note E_2
	audio_wait_12
	note C_2
	audio_wait_12
	note A_1
	audio_wait_12
	note D_2
	audio_wait_96

.sub1
	note NOTE_DURATION_18, C#1, 19
	audio_wait_18
	note NOTE_DURATION_6, D_1
	audio_wait_6
	note NOTE_DURATION_3, B_0
	audio_wait_12
	note G_0
	audio_wait_12
	note D_1
	audio_wait_48
	audio_ret

	note NOTE_DURATION_18, C#2
	audio_wait_18
	note NOTE_DURATION_6, D_2
	audio_wait_6
	note NOTE_DURATION_3, B_1
	audio_wait_12
	note G_1
	audio_wait_12
	note D_2
	audio_wait_48
	note NOTE_DURATION_18, G#0
	audio_wait_18
	note NOTE_DURATION_6, A_0
	audio_wait_6
	note NOTE_DURATION_3, F#0
	audio_wait_12
	note D_0
	audio_wait_12
	note A_0
	audio_wait_48
	note NOTE_DURATION_18, G#1
	audio_wait_18
	note NOTE_DURATION_6, A_1
	audio_wait_6
	note NOTE_DURATION_3, F#1
	audio_wait_12
	note D_1
	audio_wait_12
	note A_1
	audio_wait_48
	audio_call .sub1
	note NOTE_DURATION_18, E_0, 19
	audio_wait_18
	note NOTE_DURATION_6, D#0
	audio_wait_6
	note NOTE_DURATION_3, E_0
	audio_wait_12
	note G#0
	audio_wait_12
	note B_0
	audio_wait_12
	note D_1
	audio_wait_12
	note C#1
	audio_wait_12
	note B_0
	audio_wait_12
	note NOTE_DURATION_18, A_0
	audio_wait_18
	note NOTE_DURATION_6, A_1
	audio_wait_6
	note NOTE_DURATION_3, G_1
	audio_wait_12
	note E_1
	audio_wait_12
	note A_1
	audio_wait_12
	note NOTE_DURATION_3
	audio_wait_12
	note NOTE_DURATION_3, G_1
	audio_wait_12
	note E_1
	audio_wait_12
	note A_1
	audio_wait_60
	note A_0
	audio_wait_12
	note B_0
	audio_wait_12
	note C#1
	audio_wait_12
	note NOTE_DURATION_18, D_1
	audio_wait_18
	note NOTE_DURATION_6, F#1
	audio_wait_6
	note NOTE_DURATION_3, A_1
	audio_wait_12
	note D_2
	audio_wait_12
	note C_2
	audio_wait_12
	note G_1
	audio_wait_36
	note NOTE_DURATION_18, D_1
	audio_wait_18
	note NOTE_DURATION_6, F#1
	audio_wait_6
	note NOTE_DURATION_3, A_1
	audio_wait_12
	note D_2
	audio_wait_12
	note C_2
	audio_wait_48
	note NOTE_DURATION_18, D_1
	audio_wait_18
	note NOTE_DURATION_6, F#1
	audio_wait_6
	note NOTE_DURATION_3, A_1
	audio_wait_12
	note D_2
	audio_wait_12
	note NOTE_DURATION_6, C_2
	audio_wait_6
	note B_1
	audio_wait_6
	note NOTE_DURATION_3, C_2
	audio_wait_36
	note NOTE_DURATION_18, D_2
	audio_wait_18
	note NOTE_DURATION_6, A#1
	audio_wait_6
	note NOTE_DURATION_3, C_2
	audio_wait_12
	note D_2
	audio_wait_12
	note E_2
	audio_wait_12
	note NOTE_DURATION_3
	audio_wait_12
	note NOTE_DURATION_3, F#2
	audio_wait_12
	note G_2
	audio_wait_12
	wave WAVE_19
	note_sustain A_2, 19
	audio_wait_96
	audio_wait_96
	audio_jump .loop
.end
	note NOTE_DURATION_0, A_2
	audio_wait_96
	audio_end

Music_OutOfTheWoodsNight_Ch2: ; 32bfd (c:6bfd)
	semitone_offset 0
	wave WAVE_48
	volume 75
	audio_wait_96
	audio_wait_96
	audio_wait_96
	audio_wait_96

.loop
	audio_wait_48
	note NOTE_DURATION_3, F#3, 19
	audio_wait_48
	audio_wait_48
	note NOTE_DURATION_3
	audio_wait_48
	audio_wait_96
	audio_wait_48
	note NOTE_DURATION_3, F#4
	audio_wait_48
	audio_wait_48
	note F#3
	audio_wait_48
	audio_wait_48
	note NOTE_DURATION_3
	audio_wait_48
	audio_wait_96
	audio_wait_48
	note NOTE_DURATION_3, F#4
	audio_wait_48
	audio_wait_96
	audio_wait_96
	audio_wait_96
	audio_wait_96
	audio_wait_96
	audio_wait_96
	audio_wait_96
	audio_wait_48
	note C#4
	audio_wait_48
	audio_wait_96
	audio_wait_72
	note E_4
	audio_wait_24
	audio_wait_96
	audio_wait_96
	audio_wait_48
	note F#3
	audio_wait_48
	audio_wait_48
	note E_3
	audio_wait_24
	note E_4
	audio_wait_24
	audio_jump .loop
.end
	audio_end

Music_OutOfTheWoodsNight_Ch3: ; 32c3b (c:6c3b)
	semitone_offset 0
	wave WAVE_61
	volume 94
	note NOTE_DURATION_3, D_2, 19
	audio_wait_48
	note F#3
	audio_wait_48
	note A_1
	audio_wait_48
	note E_3
	audio_wait_48
	note D_2
	audio_wait_48
	note F#4
	audio_wait_48
	note A_1
	audio_wait_48
	note E_4
	audio_wait_48

.loop
.sub1
	note NOTE_DURATION_3, D_3, 19
	audio_wait_12
	note A_3
	audio_wait_12
	note F#3
	audio_wait_12
	note A_3
	audio_wait_12
	note D_4
	audio_wait_48
	audio_ret

	audio_call .sub1

.sub2
	note NOTE_DURATION_3, D_3, 19
	audio_wait_12
	note A_3
	audio_wait_12
	note F#3
	audio_wait_12
	note A_3
	audio_wait_12
	note C_3
	audio_wait_12
	note G_3
	audio_wait_12
	note E_3
	audio_wait_12
	note G_3
	audio_wait_12
	audio_ret

.sub3
	note NOTE_DURATION_3, D_3, 19
	audio_wait_12
	note A_3
	audio_wait_12
	note F#3
	audio_wait_12
	note A_3
	audio_wait_12
	note D_5
	audio_wait_48
	audio_ret

	audio_call .sub1
	audio_call .sub1
	audio_call .sub2
	audio_call .sub3

.sub4
	note NOTE_DURATION_3, G_3, 19
	audio_wait_12
	note D_4
	audio_wait_12
	note B_3
	audio_wait_12
	note D_4
	audio_wait_12
	note G_3
	audio_wait_12
	note D_4
	audio_wait_12
	note B_3
	audio_wait_12
	note D_4
	audio_wait_12
	audio_ret

	audio_call .sub4

.sub5
	note NOTE_DURATION_3, D_3, 19
	audio_wait_12
	note A_3
	audio_wait_12
	note F#3
	audio_wait_12
	note A_3
	audio_wait_12
	note D_3
	audio_wait_12
	note A_3
	audio_wait_12
	note F#3
	audio_wait_12
	note A_3
	audio_wait_12
	audio_ret

	audio_call .sub5
	audio_call .sub4
	note NOTE_DURATION_3, G#3, 19
	audio_wait_12
	note D_4
	audio_wait_12
	note B_3
	audio_wait_12
	note D_4
	audio_wait_12
	note G#3
	audio_wait_12
	note D_4
	audio_wait_12
	note B_3
	audio_wait_12
	note D_4
	audio_wait_12
	note A_3
	audio_wait_12
	note E_4
	audio_wait_12
	note C#4
	audio_wait_12
	note E_4
	audio_wait_12
	note A_3
	audio_wait_12
	note E_4
	audio_wait_12
	note C#4
	audio_wait_12
	note E_4
	audio_wait_12
	note A_3
	audio_wait_12
	note E_4
	audio_wait_12
	note C#4
	audio_wait_12
	note E_4
	audio_wait_12
	note A_4
	audio_wait_48
	audio_call .sub2
	note NOTE_DURATION_3, D_3, 19
	audio_wait_12
	note A_3
	audio_wait_12
	note F#3
	audio_wait_12
	note A_3
	audio_wait_12
	note C_3
	audio_wait_12
	note G_3
	audio_wait_12
	note C_5
	audio_wait_24
	audio_call .sub2
	note NOTE_DURATION_3, D_3, 19
	audio_wait_12
	note A#3
	audio_wait_12
	note F_3
	audio_wait_12
	note A#3
	audio_wait_12
	note E_3
	audio_wait_12
	note C_4
	audio_wait_12
	note G_3
	audio_wait_12
	note C_4
	audio_wait_12
	audio_call .sub1
	note NOTE_DURATION_3, C_3, 19
	audio_wait_12
	note G_3
	audio_wait_12
	note E_3
	audio_wait_12
	note G_3
	audio_wait_12
	note C_4
	audio_wait_24
	note C_5
	audio_wait_24
	audio_jump .loop
.end
	audio_end

Music_OutOfTheWoodsNight: ; 32d27 (c:6d27)
	db $3, $2
	dw Music_OutOfTheWoodsNight_Ch1
	dw Music_OutOfTheWoodsNight_Ch2
	dw Music_OutOfTheWoodsNight_Ch3
; 0x32d2f

; unused?
	dw Music_OutOfTheWoodsNight_Ch1.loop
	dw Music_OutOfTheWoodsNight_Ch2.loop
	dw Music_OutOfTheWoodsNight_Ch3.loop

	dw Music_OutOfTheWoodsNight_Ch1.end
	dw Music_OutOfTheWoodsNight_Ch2.end
	dw Music_OutOfTheWoodsNight_Ch3.end
