Music_OutOfTheWoodsDay_Ch1:
	semitone_offset 0
	tempo 55
	wave WAVE_63
	vibrato_speed 20
	vibrato_delay 5
	vibrato_amplitude 10
	vibrato_disabled FALSE
	volume 108
	audio_wait_96
	audio_wait_96
.loop
	volume 108
	wave WAVE_63
	note NOTE_DURATION_15, A_1, 24
	audio_wait_18
	note NOTE_DURATION_6
	audio_wait_6
	note NOTE_DURATION_3, G_1
	audio_wait_12
	note E_1
	audio_wait_12
	note A_1
	audio_wait_12
	note NOTE_DURATION_3
	audio_wait_12
	note NOTE_DURATION_3, G_1
	audio_wait_12
	note E_1
	audio_wait_12
	note A_1
	audio_wait_96
	note NOTE_DURATION_18
	audio_wait_18
	note NOTE_DURATION_6, B_1
	audio_wait_6
	note NOTE_DURATION_3, C#2
	audio_wait_12
	note E_2
	audio_wait_12
	note D_2
	audio_wait_12
	note B_1
	audio_wait_12
	note G_1
	audio_wait_12
	note E_1
	audio_wait_12
	note A_1
	audio_wait_96
	note NOTE_DURATION_15, A_2
	audio_wait_18
	note NOTE_DURATION_6
	audio_wait_6
	note NOTE_DURATION_3, G_2
	audio_wait_12
	note E_2
	audio_wait_12
	note A_2
	audio_wait_12
	note NOTE_DURATION_3
	audio_wait_12
	note NOTE_DURATION_3, G_2
	audio_wait_12
	note E_2
	audio_wait_12
	note A_2
	audio_wait_96
	note NOTE_DURATION_18
	audio_wait_18
	note NOTE_DURATION_6, B_2
	audio_wait_6
	note NOTE_DURATION_3, C#3
	audio_wait_12
	note E_3
	audio_wait_12
	note D_3
	audio_wait_12
	note B_2
	audio_wait_12
	note G_2
	audio_wait_12
	note E_2
	audio_wait_12
	note A_2
	audio_wait_96
	wave WAVE_6F
	note NOTE_DURATION_18, G#2
	audio_wait_18
	note NOTE_DURATION_6, A_2
	audio_wait_6
	note NOTE_DURATION_3, F#2
	audio_wait_12
	note D_2
	audio_wait_12
	note NOTE_DURATION_6, A_2
	audio_wait_6
	note G#2
	audio_wait_6
	note A_2
	audio_wait_36
	note NOTE_DURATION_18, G#3
	audio_wait_18
	note NOTE_DURATION_6, A_3
	audio_wait_6
	note NOTE_DURATION_3, F#3
	audio_wait_12
	note D_3
	audio_wait_12
	note A_3
	audio_wait_48
	note NOTE_DURATION_18, D#2
	audio_wait_18
	note NOTE_DURATION_6, E_2
	audio_wait_6
	note NOTE_DURATION_3, C#2
	audio_wait_12
	note A_1
	audio_wait_12
	note NOTE_DURATION_6, E_2
	audio_wait_6
	note D#2
	audio_wait_6
	note E_2
	audio_wait_36
	note NOTE_DURATION_18, D#3
	audio_wait_18
	note NOTE_DURATION_6, E_3
	audio_wait_6
	note NOTE_DURATION_3, C#3
	audio_wait_12
	note A_2
	audio_wait_12
	note E_3
	audio_wait_48
	note NOTE_DURATION_18, G#2
	audio_wait_18
	note NOTE_DURATION_6, A_2
	audio_wait_6
	note NOTE_DURATION_3, F#2
	audio_wait_12
	note D_2
	audio_wait_12
	note NOTE_DURATION_6, A_2
	audio_wait_6
	note G#2
	audio_wait_6
	note A_2
	audio_wait_36
	note NOTE_DURATION_18, B_1
	audio_wait_18
	note NOTE_DURATION_6, A#1
	audio_wait_6
	note NOTE_DURATION_3, B_1
	audio_wait_12
	note D#2
	audio_wait_12
	note F#2
	audio_wait_12
	note A_2
	audio_wait_12
	note G#2
	audio_wait_12
	note F#2
	audio_wait_12
	note NOTE_DURATION_15, E_2
	audio_wait_18
	note NOTE_DURATION_6
	audio_wait_6
	note NOTE_DURATION_3, D_2
	audio_wait_12
	note B_1
	audio_wait_12
	note E_2
	audio_wait_12
	note NOTE_DURATION_3
	audio_wait_12
	note NOTE_DURATION_3, D_2
	audio_wait_12
	note B_1
	audio_wait_12
	note E_2
	audio_wait_96
	wave WAVE_63
	note NOTE_DURATION_3, A_1
	audio_wait_12
	note NOTE_DURATION_6
	audio_wait_6
	note NOTE_DURATION_6, C#2
	audio_wait_6
	note NOTE_DURATION_3, E_2
	audio_wait_12
	note A_2
	audio_wait_12
	note G_2
	audio_wait_12
	note D_2
	audio_wait_36
	note NOTE_DURATION_18, A_1
	audio_wait_18
	note NOTE_DURATION_6, C#2
	audio_wait_6
	note NOTE_DURATION_3, E_2
	audio_wait_12
	note A_2
	audio_wait_12
	note G_2
	audio_wait_48
	note A_1
	audio_wait_12
	note NOTE_DURATION_6
	audio_wait_6
	note NOTE_DURATION_6, C#2
	audio_wait_6
	note NOTE_DURATION_3, E_2
	audio_wait_12
	note A_2
	audio_wait_12
	note NOTE_DURATION_6, G_2
	audio_wait_6
	note F#2
	audio_wait_6
	note G_2
	audio_wait_36
	note NOTE_DURATION_18, A_2
	audio_wait_18
	note NOTE_DURATION_6, F_2
	audio_wait_6
	note NOTE_DURATION_3, G_2
	audio_wait_12
	note A_2
	audio_wait_12
	note B_2
	audio_wait_12
	note NOTE_DURATION_3
	audio_wait_12
	note NOTE_DURATION_3, C#3
	audio_wait_12
	note D_3
	audio_wait_12
	volume 94
	note NOTE_DURATION_92, E_3
	audio_wait_96
	note NOTE_DURATION_92, E_3
	audio_wait_96
	audio_wait_96
	audio_wait_96
	audio_jump .loop
.end
	audio_end

Music_OutOfTheWoodsDay_Ch2:
	semitone_offset 0
	wave WAVE_0D
	vibrato_amplitude 20
	volume 75
	audio_wait_12
	note NOTE_DURATION_4, C#1, 19
	audio_wait_48
	note D_1
	audio_wait_36

.sub1
	volume 75
	audio_wait_12
	note NOTE_DURATION_4, C#1, 19
	audio_wait_48
	note D_1
	audio_wait_36
	audio_ret

.loop
	audio_call .sub1
	audio_call .sub1
	audio_call .sub1
	audio_call .sub1
	audio_call .sub1
	audio_call .sub1
	audio_call .sub1
	audio_wait_12
	note NOTE_DURATION_4, C#1, 19
	audio_wait_84
	audio_wait_12
	note F#1
	audio_wait_48
	note E_1
	audio_wait_36

.sub2
	audio_wait_12
	note NOTE_DURATION_4, F#1, 19
	audio_wait_48
	note NOTE_DURATION_4
	audio_wait_24
	note NOTE_DURATION_4
	audio_wait_12
	audio_ret

	audio_call .sub1
	audio_wait_12
	note NOTE_DURATION_4, C#1, 19
	audio_wait_84
	audio_call .sub2
	audio_call .sub2
	audio_wait_12
	note NOTE_DURATION_4, G#1, 19
	audio_wait_48
	note A_1
	audio_wait_36
	note G#1
	audio_wait_96
	note NOTE_DURATION_3, E_1
	audio_wait_12
	note NOTE_DURATION_6
	audio_wait_6
	note NOTE_DURATION_6, A_1
	audio_wait_6
	note NOTE_DURATION_3, C#2
	audio_wait_12
	note E_2
	audio_wait_12
	note D_2
	audio_wait_12
	note B_1
	audio_wait_24
	note NOTE_DURATION_4, D_1
	audio_wait_12
	note NOTE_DURATION_18, E_1
	audio_wait_18
	note NOTE_DURATION_6, A_1
	audio_wait_6
	note NOTE_DURATION_3, C#2
	audio_wait_12
	note E_2
	audio_wait_12
	note D_2
	audio_wait_48
	note E_1
	audio_wait_12
	note NOTE_DURATION_6
	audio_wait_6
	note NOTE_DURATION_6, A_1
	audio_wait_6
	note NOTE_DURATION_3, C#2
	audio_wait_12
	note E_2
	audio_wait_12
	note NOTE_DURATION_6, D_2
	audio_wait_6
	note C#2
	audio_wait_6
	note D_2
	audio_wait_24
	note NOTE_DURATION_4, D_1
	audio_wait_12
	note NOTE_DURATION_18, F_2
	audio_wait_18
	note NOTE_DURATION_6, C_2
	audio_wait_6
	note NOTE_DURATION_3
	audio_wait_12
	note NOTE_DURATION_3, F_2
	audio_wait_12
	note G_2
	audio_wait_12
	note NOTE_DURATION_3
	audio_wait_12
	note NOTE_DURATION_3, A_2
	audio_wait_12
	note B_2
	audio_wait_12

.sub3
	volume 56
	note NOTE_DURATION_48, C#3, 14
	audio_wait_48
	note B_2
	audio_wait_48
	audio_ret

	audio_call .sub3
	audio_call .sub1
	audio_call .sub1
	audio_jump .loop
.end
	audio_end

Music_OutOfTheWoodsDay_Ch3:
	semitone_offset 0
	wave WAVE_17
	vibrato_amplitude 20
	volume 75
	note NOTE_DURATION_4, A_0, 19
	audio_wait_12
	note E_1
	audio_wait_24
	note E_0
	audio_wait_12
	note G_0
	audio_wait_12
	note G_1
	audio_wait_12
	note G_0
	audio_wait_12
	note NOTE_DURATION_12, G#0
	audio_wait_12

.sub1
	note NOTE_DURATION_4, A_0, 19
	audio_wait_12
	note E_1
	audio_wait_24
	note E_0
	audio_wait_12
	note G_0
	audio_wait_12
	note G_1
	audio_wait_12
	note G_0
	audio_wait_12
	note NOTE_DURATION_12, G#0
	audio_wait_12
	audio_ret

.loop
	audio_call .sub1
	audio_call .sub1
	audio_call .sub1
	audio_call .sub1
	audio_call .sub1
	audio_call .sub1
	note NOTE_DURATION_4, A_0, 19
	audio_wait_12
	note E_1
	audio_wait_24
	note E_0
	audio_wait_12
	note G_0
	audio_wait_12
	note G_1
	audio_wait_12
	note G_0
	audio_wait_12
	note NOTE_DURATION_13, G#0
	audio_wait_12

.sub2
	note NOTE_DURATION_4, A_0, 19
	audio_wait_12
	note E_1
	audio_wait_24
	note E_0
	audio_wait_12
	note A_0
	audio_wait_12
	note NOTE_DURATION_4
	audio_wait_12
	note NOTE_DURATION_4, B_0
	audio_wait_12
	note C#1
	audio_wait_12
	audio_ret

	note D_1
	audio_wait_12
	note A_1
	audio_wait_24
	note A_0
	audio_wait_12
	note C_1
	audio_wait_12
	note A_1
	audio_wait_12
	note C_1
	audio_wait_12
	note NOTE_DURATION_12, C#1
	audio_wait_12

.sub3
	note NOTE_DURATION_4, D_1, 19
	audio_wait_12
	note A_1
	audio_wait_24
	note A_0
	audio_wait_12
	note D_1
	audio_wait_12
	note A_1
	audio_wait_12
	note D_1
	audio_wait_12
	note A_1
	audio_wait_12
	audio_ret

	audio_call .sub1
	audio_call .sub2
	audio_call .sub3
	note NOTE_DURATION_4, D#1, 19
	audio_wait_12
	note A_1
	audio_wait_24
	note B_0
	audio_wait_12
	note D#1
	audio_wait_12
	note A_1
	audio_wait_12
	note D#1
	audio_wait_12
	note A_1
	audio_wait_12
	note E_1
	audio_wait_12
	note B_1
	audio_wait_24
	note B_0
	audio_wait_12
	note D_1
	audio_wait_12
	note D_2
	audio_wait_12
	note D_1
	audio_wait_12
	note D#1
	audio_wait_12
	note B_1
	audio_wait_60
	note E_0
	audio_wait_12
	note F#0
	audio_wait_12
	note G#0
	audio_wait_12
	note A_0
	audio_wait_12
	note A_1
	audio_wait_24
	note A_0
	audio_wait_12
	note E_0
	audio_wait_12
	note G_1
	audio_wait_12
	note E_0
	audio_wait_12
	note G_1
	audio_wait_12
	note A_0
	audio_wait_12
	note A_1
	audio_wait_24
	note A_0
	audio_wait_12
	note B_1
	audio_wait_48
	note A_0
	audio_wait_12
	note A_1
	audio_wait_24
	note A_0
	audio_wait_12
	note E_0
	audio_wait_12
	note B_1
	audio_wait_12
	note E_0
	audio_wait_12
	note B_1
	audio_wait_12
	note F_0
	audio_wait_12
	note C_2
	audio_wait_24
	note F_0
	audio_wait_12
	note E_0
	audio_wait_12
	note D_2
	audio_wait_12
	note E_0
	audio_wait_12
	note D_2
	audio_wait_12
	audio_call .sub1
	audio_call .sub1
	audio_call .sub1
	audio_call .sub1
	audio_jump .loop
.end
	audio_end

Music_OutOfTheWoodsDay_Ch4:
	semitone_offset 0
	wave WAVE_28
	volume 75
	note NOTE_DURATION_3, F#0, 19
	audio_wait_12
	note NOTE_DURATION_3
	audio_wait_12
	note NOTE_DURATION_3, G#0
	audio_wait_12
	note F#0
	audio_wait_12
	note NOTE_DURATION_3
	audio_wait_12
	note NOTE_DURATION_3
	audio_wait_12
	note NOTE_DURATION_3, G#0
	audio_wait_12
	note F#0
	audio_wait_12

.sub1
	note NOTE_DURATION_3, F#0, 19
	audio_wait_12
	note NOTE_DURATION_3
	audio_wait_12
	note NOTE_DURATION_3, G#0
	audio_wait_12
	note F#0
	audio_wait_12
	note NOTE_DURATION_3
	audio_wait_12
	note NOTE_DURATION_3
	audio_wait_12
	note NOTE_DURATION_3, G#0
	audio_wait_12
	note NOTE_DURATION_3
	audio_wait_6
	note NOTE_DURATION_3
	audio_wait_6
	audio_ret

.loop
.sub2
	note NOTE_DURATION_3, F#0, 23
	audio_wait_12
	note NOTE_DURATION_3
	audio_wait_12
	note NOTE_DURATION_3, G#0
	audio_wait_12
	note F#0
	audio_wait_12
	note NOTE_DURATION_3
	audio_wait_12
	note NOTE_DURATION_3
	audio_wait_12
	note NOTE_DURATION_3, G#0
	audio_wait_12
	note F#0
	audio_wait_12
	audio_ret

	audio_call .sub2
	audio_call .sub2
	audio_call .sub2
	audio_call .sub2
	audio_call .sub2
	audio_call .sub2
	audio_call .sub2
	audio_call .sub2
	audio_call .sub2
	audio_call .sub2
	audio_call .sub2
	audio_call .sub2
	audio_call .sub2
	audio_call .sub2
	audio_call .sub2
	audio_call .sub2
	audio_call .sub2
	audio_call .sub2
	audio_call .sub2
	audio_call .sub2
	audio_call .sub2
	audio_call .sub2
	audio_call .sub1
	audio_jump .loop
.end
	audio_end

Music_OutOfTheWoodsDay:
	db $4, $2
	dw Music_OutOfTheWoodsDay_Ch1
	dw Music_OutOfTheWoodsDay_Ch2
	dw Music_OutOfTheWoodsDay_Ch3
	dw Music_OutOfTheWoodsDay_Ch4

; unused?
	dw Music_OutOfTheWoodsDay_Ch1.loop
	dw Music_OutOfTheWoodsDay_Ch2.loop
	dw Music_OutOfTheWoodsDay_Ch3.loop
	dw Music_OutOfTheWoodsDay_Ch4.loop

	dw Music_OutOfTheWoodsDay_Ch1.end
	dw Music_OutOfTheWoodsDay_Ch2.end
	dw Music_OutOfTheWoodsDay_Ch3.end
	dw Music_OutOfTheWoodsDay_Ch4.end
