Music_TheWarpedVoid_Ch1:
	semitone_offset 0
	tempo 45
	wave WAVE_55
	volume 85
	audio_wait_96
	audio_wait_96

.loop
.sub1
	note NOTE_DURATION_4, C_2, 19
	audio_wait_6
	note E_2
	audio_wait_6
	note C#2
	audio_wait_6
	note F_2
	audio_wait_6
	note D_2
	audio_wait_6
	note F#2
	audio_wait_6
	note D#2
	audio_wait_6
	note G_2
	audio_wait_6
	note E_2
	audio_wait_6
	note G#2
	audio_wait_6
	note F_2
	audio_wait_6
	note A_2
	audio_wait_6
	note F#2
	audio_wait_6
	note A#2
	audio_wait_6
	note G_2
	audio_wait_6
	note B_2
	audio_wait_6
	audio_ret

.sub2
	note NOTE_DURATION_4, G#2, 19
	audio_wait_6
	note C_3
	audio_wait_6
	note A_2
	audio_wait_6
	note C#3
	audio_wait_6
	note A#2
	audio_wait_6
	note D_3
	audio_wait_6
	note B_2
	audio_wait_6
	note D#3
	audio_wait_6
	note C_3
	audio_wait_6
	note E_3
	audio_wait_6
	note C#3
	audio_wait_6
	note F_3
	audio_wait_6
	note D_3
	audio_wait_6
	note F#3
	audio_wait_6
	note D#3
	audio_wait_6
	note G_3
	audio_wait_6
	audio_ret

	audio_wait_96
	audio_wait_96
.sub3
	note NOTE_DURATION_4, E_3, 19
	audio_wait_6
	note G#3
	audio_wait_6
	note D#3
	audio_wait_6
	note G_3
	audio_wait_6
	note D_3
	audio_wait_6
	note F#3
	audio_wait_6
	note C#3
	audio_wait_6
	note F_3
	audio_wait_6
	note C_3
	audio_wait_6
	note E_3
	audio_wait_6
	note B_2
	audio_wait_6
	note D#3
	audio_wait_6
	note A#2
	audio_wait_6
	note D_3
	audio_wait_6
	note A_2
	audio_wait_6
	note C#3
	audio_wait_6
	audio_ret

.sub4
	note NOTE_DURATION_4, G#2, 19
	audio_wait_6
	note C_3
	audio_wait_6
	note G_2
	audio_wait_6
	note B_2
	audio_wait_6
	note F#2
	audio_wait_6
	note A#2
	audio_wait_6
	note F_2
	audio_wait_6
	note A_2
	audio_wait_6
	note E_2
	audio_wait_6
	note G#2
	audio_wait_6
	note D#2
	audio_wait_6
	note G_2
	audio_wait_6
	note D_2
	audio_wait_6
	note F#2
	audio_wait_6
	note C#2
	audio_wait_6
	note F_2
	audio_wait_6
	audio_ret

	audio_wait_96
	audio_wait_96
	audio_call .sub1
	audio_call .sub2
	audio_wait_96
	audio_wait_96
	audio_call .sub3
	audio_call .sub4
	audio_wait_96
	audio_wait_96
.sub5
	note NOTE_DURATION_4, C_2, 19
	audio_wait_6
	note E_2
	audio_wait_6
	note B_1
	audio_wait_6
	note D#2
	audio_wait_6
	note C_2
	audio_wait_6
	note E_2
	audio_wait_6
	note B_1
	audio_wait_6
	note D#2
	audio_wait_6
	note C_2
	audio_wait_6
	note E_2
	audio_wait_6
	note C#2
	audio_wait_6
	note F_2
	audio_wait_6
	note C_2
	audio_wait_6
	note E_2
	audio_wait_6
	note B_1
	audio_wait_6
	note D#2
	audio_wait_6
	audio_ret

.sub6
	note NOTE_DURATION_4, A#1, 19
	audio_wait_6
	note D_2
	audio_wait_6
	note A_1
	audio_wait_6
	note C#2
	audio_wait_6
	note A#1
	audio_wait_6
	note D_2
	audio_wait_6
	note A_1
	audio_wait_6
	note C#2
	audio_wait_6
	note A#1
	audio_wait_6
	note D_2
	audio_wait_6
	note A_1
	audio_wait_6
	note C#2
	audio_wait_6
	note A#1
	audio_wait_6
	note D_2
	audio_wait_6
	note B_1
	audio_wait_6
	note D#2
	audio_wait_6
	audio_ret

	audio_wait_96
	audio_wait_96
	audio_call .sub5
	audio_call .sub6
	audio_wait_96
	audio_wait_96
	note NOTE_DURATION_4, C_2, 19
	audio_wait_6
	note E_2
	audio_wait_6
	note B_1
	audio_wait_6
	note D#2
	audio_wait_6
	note C_2
	audio_wait_6
	note E_2
	audio_wait_6
	note B_1
	audio_wait_6
	note D#2
	audio_wait_6
	note C_2
	audio_wait_6
	note E_2
	audio_wait_6
	note C#2
	audio_wait_6
	note F_2
	audio_wait_6
	note D_2
	audio_wait_6
	note F#2
	audio_wait_6
	note D#2
	audio_wait_6
	note G_2
	audio_wait_6
	note E_2
	audio_wait_6
	note G#2
	audio_wait_6
	note D#2
	audio_wait_6
	note G_2
	audio_wait_6
	note E_2
	audio_wait_6
	note G#2
	audio_wait_6
	note D#2
	audio_wait_6
	note G_2
	audio_wait_6
	note E_2
	audio_wait_6
	note G#2
	audio_wait_6
	note F_2
	audio_wait_6
	note A_2
	audio_wait_6
	note F#2
	audio_wait_6
	note A#2
	audio_wait_6
	note G_2
	audio_wait_6
	note B_2
	audio_wait_6
	audio_wait_96
	audio_wait_96
	note G#2
	audio_wait_6
	note C_3
	audio_wait_6
	note G_2
	audio_wait_6
	note B_2
	audio_wait_6
	note G#2
	audio_wait_6
	note C_3
	audio_wait_6
	note G_2
	audio_wait_6
	note B_2
	audio_wait_6
	note G#2
	audio_wait_6
	note C_3
	audio_wait_6
	note G_2
	audio_wait_6
	note B_2
	audio_wait_6
	note F#2
	audio_wait_6
	note A#2
	audio_wait_6
	note F_2
	audio_wait_6
	note A_2
	audio_wait_6
	note E_2
	audio_wait_6
	note G#2
	audio_wait_6
	note D#2
	audio_wait_6
	note G_2
	audio_wait_6
	note E_2
	audio_wait_6
	note G#2
	audio_wait_6
	note D#2
	audio_wait_6
	note G_2
	audio_wait_6
	note E_2
	audio_wait_6
	note G#2
	audio_wait_6
	note D#2
	audio_wait_6
	note G_2
	audio_wait_6
	note D_2
	audio_wait_6
	note F#2
	audio_wait_6
	note C#2
	audio_wait_6
	note F_2
	audio_wait_6
	audio_wait_96
	audio_wait_96
	audio_jump .loop
.end
	note NOTE_DURATION_4, C_2, 19
	audio_wait_6
	note E_2
	audio_wait_6
	note C#2
	audio_wait_6
	note F_2
	audio_wait_6
	note D_2
	audio_wait_6
	note F#2
	audio_wait_6
	note D#2
	audio_wait_6
	note G_2
	audio_wait_6
	note E_2
	audio_wait_6
	note G#2
	audio_wait_6
	note F_2
	audio_wait_6
	note A_2
	audio_wait_6
	note F#2
	audio_wait_6
	note A#2
	audio_wait_6
	note G_2
	audio_wait_6
	note B_2
	audio_wait_4
	audio_end

Music_TheWarpedVoid_Ch2:
	semitone_offset 0
	wave WAVE_48
	volume 66
	audio_wait_96
	audio_wait_96

.loop
.sub1
	audio_wait_9
	note NOTE_DURATION_4, C_2, 17
	audio_wait_6
	note E_2
	audio_wait_6
	note C#2
	audio_wait_6
	note F_2
	audio_wait_6
	note D_2
	audio_wait_6
	note F#2
	audio_wait_6
	note D#2
	audio_wait_6
	note G_2
	audio_wait_6
	note E_2
	audio_wait_6
	note G#2
	audio_wait_6
	note F_2
	audio_wait_6
	note A_2
	audio_wait_6
	note F#2
	audio_wait_6
	note A#2
	audio_wait_6
	note G_2
	audio_wait_3
	audio_ret

.sub2
	audio_wait_3
	note NOTE_DURATION_4, B_2, 17
	audio_wait_6
	note G#2
	audio_wait_6
	note C_3
	audio_wait_6
	note A_2
	audio_wait_6
	note C#3
	audio_wait_6
	note A#2
	audio_wait_6
	note D_3
	audio_wait_6
	note B_2
	audio_wait_6
	note D#3
	audio_wait_6
	note C_3
	audio_wait_6
	note E_3
	audio_wait_6
	note C#3
	audio_wait_6
	note F_3
	audio_wait_6
	note D_3
	audio_wait_6
	note F#3
	audio_wait_6
	note D#3
	audio_wait_3
	audio_ret

.sub3
	audio_wait_3
	note NOTE_DURATION_4, G_3, 17
	audio_wait_92
	audio_wait_1
	audio_ret

	audio_wait_96
.sub4
	audio_wait_9
	note NOTE_DURATION_4, E_3, 17
	audio_wait_6
	note G#3
	audio_wait_6
	note D#3
	audio_wait_6
	note G_3
	audio_wait_6
	note D_3
	audio_wait_6
	note F#3
	audio_wait_6
	note C#3
	audio_wait_6
	note F_3
	audio_wait_6
	note C_3
	audio_wait_6
	note E_3
	audio_wait_6
	note B_2
	audio_wait_6
	note D#3
	audio_wait_6
	note A#2
	audio_wait_6
	note D_3
	audio_wait_6
	note A_2
	audio_wait_3
	audio_ret

.sub5
	audio_wait_3
	note NOTE_DURATION_4, C#3, 17
	audio_wait_6
	note G#2
	audio_wait_6
	note C_3
	audio_wait_6
	note G_2
	audio_wait_6
	note B_2
	audio_wait_6
	note F#2
	audio_wait_6
	note A#2
	audio_wait_6
	note F_2
	audio_wait_6
	note A_2
	audio_wait_6
	note E_2
	audio_wait_6
	note G#2
	audio_wait_6
	note D#2
	audio_wait_6
	note G_2
	audio_wait_6
	note D_2
	audio_wait_6
	note F#2
	audio_wait_6
	note C#2
	audio_wait_3
	audio_ret

.sub6
	audio_wait_3
	note NOTE_DURATION_4, F_2, 17
	audio_wait_92
	audio_wait_1
	audio_ret

	audio_wait_96
	audio_call .sub1
	audio_call .sub2
	audio_call .sub3
	audio_wait_96
	audio_call .sub4
	audio_call .sub5
	audio_call .sub6
	audio_wait_96
.sub7
	audio_wait_9
	note NOTE_DURATION_4, C_2, 17
	audio_wait_6
	note E_2
	audio_wait_6
	note B_1
	audio_wait_6
	note D#2
	audio_wait_6
	note C_2
	audio_wait_6
	note E_2
	audio_wait_6
	note B_1
	audio_wait_6
	note D#2
	audio_wait_6
	note C_2
	audio_wait_6
	note E_2
	audio_wait_6
	note C#2
	audio_wait_6
	note F_2
	audio_wait_6
	note C_2
	audio_wait_6
	note E_2
	audio_wait_6
	note B_1
	audio_wait_3
	audio_ret

.sub8
	audio_wait_3
	note NOTE_DURATION_4, D#2, 17
	audio_wait_6
	note A#1
	audio_wait_6
	note D_2
	audio_wait_6
	note A_1
	audio_wait_6
	note C#2
	audio_wait_6
	note A#1
	audio_wait_6
	note D_2
	audio_wait_6
	note A_1
	audio_wait_6
	note C#2
	audio_wait_6
	note A#1
	audio_wait_6
	note D_2
	audio_wait_6
	note A_1
	audio_wait_6
	note C#2
	audio_wait_6
	note A#1
	audio_wait_6
	note D_2
	audio_wait_6
	note B_1
	audio_wait_3
	audio_ret

.sub9
	audio_wait_3
	note NOTE_DURATION_4, D#2, 17
	audio_wait_92
	audio_wait_1
	audio_ret

	audio_wait_96
	audio_call .sub7
	audio_call .sub8
	audio_call .sub9
	audio_wait_96
	audio_wait_9
	note NOTE_DURATION_4, C_2, 17
	audio_wait_6
	note E_2
	audio_wait_6
	note B_1
	audio_wait_6
	note D#2
	audio_wait_6
	note C_2
	audio_wait_6
	note E_2
	audio_wait_6
	note B_1
	audio_wait_6
	note D#2
	audio_wait_6
	note C_2
	audio_wait_6
	note E_2
	audio_wait_6
	note C#2
	audio_wait_6
	note F_2
	audio_wait_6
	note D_2
	audio_wait_6
	note F#2
	audio_wait_6
	note D#2
	audio_wait_3
	audio_wait_3
	note G_2
	audio_wait_6
	note E_2
	audio_wait_6
	note G#2
	audio_wait_6
	note D#2
	audio_wait_6
	note G_2
	audio_wait_6
	note E_2
	audio_wait_6
	note G#2
	audio_wait_6
	note D#2
	audio_wait_6
	note G_2
	audio_wait_6
	note E_2
	audio_wait_6
	note G#2
	audio_wait_6
	note F_2
	audio_wait_6
	note A_2
	audio_wait_6
	note F#2
	audio_wait_6
	note A#2
	audio_wait_6
	note G_2
	audio_wait_3
	audio_wait_3
	note B_2
	audio_wait_92
	audio_wait_1
	audio_wait_96
	audio_wait_9
	note G#2
	audio_wait_6
	note C_3
	audio_wait_6
	note G_2
	audio_wait_6
	note B_2
	audio_wait_6
	note G#2
	audio_wait_6
	note C_3
	audio_wait_6
	note G_2
	audio_wait_6
	note B_2
	audio_wait_6
	note G#2
	audio_wait_6
	note C_3
	audio_wait_6
	note G_2
	audio_wait_6
	note B_2
	audio_wait_6
	note F#2
	audio_wait_6
	note A#2
	audio_wait_6
	note F_2
	audio_wait_3
	audio_wait_3
	note A_2
	audio_wait_6
	note E_2
	audio_wait_6
	note G#2
	audio_wait_6
	note D#2
	audio_wait_6
	note G_2
	audio_wait_6
	note E_2
	audio_wait_6
	note G#2
	audio_wait_6
	note D#2
	audio_wait_6
	note G_2
	audio_wait_6
	note E_2
	audio_wait_6
	note G#2
	audio_wait_6
	note D#2
	audio_wait_6
	note G_2
	audio_wait_6
	note D_2
	audio_wait_6
	note F#2
	audio_wait_6
	note C#2
	audio_wait_3
	audio_wait_3
	note NOTE_DURATION_6, F_2
	audio_wait_92
	audio_wait_1
	audio_wait_96
	audio_jump .loop
.end
	audio_call .sub1
	audio_wait_1
	audio_end

Music_TheWarpedVoid_Ch3:
	semitone_offset 0
	wave WAVE_28
	volume 75
	note NOTE_DURATION_3, C_0, 19
	audio_wait_24
	note D_0
	audio_wait_24
	note C_0
	audio_wait_12
	note NOTE_DURATION_3
	audio_wait_12
	note NOTE_DURATION_3, D_0
	audio_wait_24
.sub1
	note NOTE_DURATION_3, C_0, 19
	audio_wait_24
	note D_0
	audio_wait_24
	note C_0
	audio_wait_12
	note NOTE_DURATION_3
	audio_wait_12
	note NOTE_DURATION_3, D_0
	audio_wait_12
	note NOTE_DURATION_3
	audio_wait_6
	note NOTE_DURATION_3
	audio_wait_6
	audio_ret

.loop
.sub2
	note NOTE_DURATION_3, C_0, 19
	audio_wait_24
	note D_0
	audio_wait_24
	note C_0
	audio_wait_12
	note NOTE_DURATION_3
	audio_wait_12
	note NOTE_DURATION_3, D_0
	audio_wait_24
	audio_ret

	audio_call .sub2
	audio_call .sub2
	audio_call .sub1
	audio_call .sub2
	audio_call .sub2
	audio_call .sub2
	audio_call .sub1
	audio_call .sub2
	audio_call .sub2
	audio_call .sub2
	audio_call .sub1
	audio_call .sub2
	audio_call .sub2
	audio_call .sub2
	audio_call .sub1
	audio_call .sub2
	audio_call .sub2
	audio_call .sub2
	audio_call .sub1
	audio_call .sub2
	audio_call .sub2
	audio_call .sub2
	audio_call .sub1
	audio_call .sub2
	audio_call .sub2
	audio_call .sub2
	audio_call .sub1
	audio_call .sub2
	audio_call .sub2
	audio_call .sub2
	audio_call .sub1
	audio_jump .loop
.end
	note NOTE_DURATION_3, C_0, 19
	audio_wait_24
	note D_0
	audio_wait_24
	note C_0
	audio_wait_12
	note NOTE_DURATION_3
	audio_wait_12
	note NOTE_DURATION_3, D_0
	audio_wait_3
	audio_end

Music_TheWarpedVoid:
	db $3, $2
	dw Music_TheWarpedVoid_Ch1
	dw Music_TheWarpedVoid_Ch2
	dw Music_TheWarpedVoid_Ch3

	dw Music_TheWarpedVoid_Ch1.loop
	dw Music_TheWarpedVoid_Ch2.loop
	dw Music_TheWarpedVoid_Ch3.loop

	dw Music_TheWarpedVoid_Ch1.end
	dw Music_TheWarpedVoid_Ch2.end
	dw Music_TheWarpedVoid_Ch3.end

