Music_TheVolcanosBaseNight_Ch1:
	semitone_offset 0

.loop
	tempo 55
	wave WAVE_51
	volume 85
	audio_wait_96
	audio_wait_96
.sub1
	note NOTE_DURATION_3, C_2, 22
	audio_wait_12
	note NOTE_DURATION_3
	audio_wait_12
	note NOTE_DURATION_3, B_1
	audio_wait_12
	note G_1
	audio_wait_12
	note C_2
	audio_wait_12
	note NOTE_DURATION_3
	audio_wait_12
	note NOTE_DURATION_3, B_1
	audio_wait_12
	note G_1
	audio_wait_12
	audio_ret

.sub2
	note NOTE_DURATION_6, C_2, 22
	audio_wait_6
	note D_2
	audio_wait_6
	note E_2
	audio_wait_6
	note G_2
	audio_wait_6
	note NOTE_DURATION_3, F#2
	audio_wait_12
	note D_2
	audio_wait_12
	note C_2
	audio_wait_48
	audio_ret

	audio_call .sub1
.sub3
	note NOTE_DURATION_6, C_2, 22
	audio_wait_6
	note D_2
	audio_wait_6
	note E_2
	audio_wait_6
	note G_2
	audio_wait_6
	note NOTE_DURATION_3, F#2
	audio_wait_12
	note G_2
	audio_wait_12
	note C_3
	audio_wait_48
	audio_ret

.sub4
	note NOTE_DURATION_6, C_3, 22
	audio_wait_6
	note C_4
	audio_wait_6
	note NOTE_DURATION_3, C_3
	audio_wait_12
	note B_2
	audio_wait_12
	note G_2
	audio_wait_12
	note NOTE_DURATION_6, C_3
	audio_wait_6
	note C_4
	audio_wait_6
	note NOTE_DURATION_3, C_3
	audio_wait_12
	note B_2
	audio_wait_12
	note G_2
	audio_wait_12
	audio_ret

.sub5
	note NOTE_DURATION_6, C_3, 22
	audio_wait_6
	note D_3
	audio_wait_6
	note E_3
	audio_wait_6
	note G_3
	audio_wait_6
	note NOTE_DURATION_3, F#3
	audio_wait_12
	note D_3
	audio_wait_12
	note C_3
	audio_wait_48
	audio_ret

.sub6
	note NOTE_DURATION_6, C_3, 22
	audio_wait_6
	note C_4
	audio_wait_6
	note C_3
	audio_wait_6
	note C_4
	audio_wait_6
	note NOTE_DURATION_3, B_2
	audio_wait_12
	note G_2
	audio_wait_12
	note NOTE_DURATION_6, C_3
	audio_wait_6
	note C_4
	audio_wait_6
	note C_3
	audio_wait_6
	note C_4
	audio_wait_6
	note NOTE_DURATION_3, B_2
	audio_wait_12
	note G_2
	audio_wait_12
	audio_ret

.sub7
	note NOTE_DURATION_6, C_3, 22
	audio_wait_6
	note D_3
	audio_wait_6
	note E_3
	audio_wait_6
	note G_3
	audio_wait_6
	note NOTE_DURATION_3, F#3
	audio_wait_12
	note G_3
	audio_wait_12
	note C_4
	audio_wait_48
	audio_ret

	wave WAVE_50
	note NOTE_DURATION_3
	audio_wait_12
	note NOTE_DURATION_3
	audio_wait_12
	note NOTE_DURATION_3, A_3
	audio_wait_12
	note F_3
	audio_wait_12
	note C_4
	audio_wait_12
	note NOTE_DURATION_3
	audio_wait_12
	note NOTE_DURATION_3, A_3
	audio_wait_12
	note F_3
	audio_wait_12
	note NOTE_DURATION_6, B_3
	audio_wait_6
	note C_4
	audio_wait_6
	note B_3
	audio_wait_6
	note C_4
	audio_wait_6
	note NOTE_DURATION_3, A_3
	audio_wait_12
	note F_3
	audio_wait_12
	note C_4
	audio_wait_48
	note G_3
	audio_wait_12
	note NOTE_DURATION_3
	audio_wait_12
	note NOTE_DURATION_3, E_3
	audio_wait_12
	note C_3
	audio_wait_12
	note G_3
	audio_wait_12
	note NOTE_DURATION_3
	audio_wait_12
	note NOTE_DURATION_3, E_3
	audio_wait_12
	note C_3
	audio_wait_12
	note NOTE_DURATION_6, F#3
	audio_wait_6
	note G_3
	audio_wait_6
	note F#3
	audio_wait_6
	note G_3
	audio_wait_6
	note NOTE_DURATION_3, E_3
	audio_wait_12
	note C_3
	audio_wait_12
	note G_3
	audio_wait_48
	note C_3
	audio_wait_12
	note NOTE_DURATION_3
	audio_wait_12
	note NOTE_DURATION_3, A_2
	audio_wait_12
	note F_2
	audio_wait_12
	note C_3
	audio_wait_12
	note NOTE_DURATION_3
	audio_wait_12
	note NOTE_DURATION_3, A_2
	audio_wait_12
	note F_2
	audio_wait_12
	note C_3
	audio_wait_12
	note NOTE_DURATION_3
	audio_wait_12
	note NOTE_DURATION_3, A_2
	audio_wait_12
	note F#2
	audio_wait_12
	note D_2
	audio_wait_12
	note NOTE_DURATION_6, F#2
	audio_wait_6
	note A_2
	audio_wait_6
	note NOTE_DURATION_3, C_3
	audio_wait_12
	note NOTE_DURATION_6, B_2
	audio_wait_6
	note A_2
	audio_wait_6
	note NOTE_DURATION_3, G_2
	audio_wait_12
	note NOTE_DURATION_3
	audio_wait_12
	note NOTE_DURATION_3, F_2
	audio_wait_12
	note D_2
	audio_wait_12
	note G_2
	audio_wait_12
	note NOTE_DURATION_3
	audio_wait_12
	note NOTE_DURATION_3, F_2
	audio_wait_12
	note D_2
	audio_wait_12
	note G_2
	audio_wait_12
	note NOTE_DURATION_4, D_2
	audio_wait_4
	note D#2
	audio_wait_4
	note D_2
	audio_wait_4
	note NOTE_DURATION_3, C#2
	audio_wait_12
	note D_2
	audio_wait_12
	note G_2
	audio_wait_48
	wave WAVE_51
	note NOTE_DURATION_3, C_2
	audio_wait_12
	note NOTE_DURATION_3
	audio_wait_12
	note NOTE_DURATION_3, B_1
	audio_wait_12
	note G_1
	audio_wait_12
	note C_2
	audio_wait_12
	note NOTE_DURATION_3
	audio_wait_12
	note NOTE_DURATION_3, B_1
	audio_wait_12
	note G_1
	audio_wait_12
	audio_call .sub2
	audio_call .sub1
	audio_call .sub3
	audio_call .sub4
	audio_call .sub5
	audio_call .sub6
	audio_call .sub7
	audio_jump .loop
.end
	audio_end

Music_TheVolcanosBaseNight_Ch2:
	semitone_offset 0

.loop
	wave WAVE_47
	volume 85
	note NOTE_DURATION_3, G_0, 22
	audio_wait_12
	note F#0
	audio_wait_12
	note G_0
	audio_wait_12
	note F#0
	audio_wait_12
	note G_0
	audio_wait_12
	note F#0
	audio_wait_12
	note G_0
	audio_wait_12
	note F#0
	audio_wait_12
.sub1
	note NOTE_DURATION_3, G_0, 22
	audio_wait_12
	note F#0
	audio_wait_12
	note G_0
	audio_wait_12
	note F#0
	audio_wait_12
	note G_0
	audio_wait_6
	note NOTE_DURATION_3
	audio_wait_6
	note NOTE_DURATION_3, F#0
	audio_wait_12
	note G_0
	audio_wait_12
	note F#0
	audio_wait_12
	audio_ret

.sub2
	note NOTE_DURATION_3, G_0, 22
	audio_wait_12
	note F#0
	audio_wait_12
	note G_0
	audio_wait_12
	note F#0
	audio_wait_12
	note G_0
	audio_wait_12
	note F#0
	audio_wait_12
	note G_0
	audio_wait_12
	note F#0
	audio_wait_12
	audio_ret

	audio_call .sub1
	audio_call .sub2
	audio_call .sub1
	audio_call .sub2
	audio_call .sub1
	audio_call .sub2
	audio_call .sub1
.sub3
	note NOTE_DURATION_3, C_1, 22
	audio_wait_12
	note B_0
	audio_wait_12
	note C_1
	audio_wait_12
	note B_0
	audio_wait_12
	note C_1
	audio_wait_12
	note B_0
	audio_wait_12
	note C_1
	audio_wait_12
	note B_0
	audio_wait_12
	audio_ret

	note C_1
	audio_wait_12
	note B_0
	audio_wait_12
	note C_1
	audio_wait_12
	note B_0
	audio_wait_12
	note C_1
	audio_wait_6
	note NOTE_DURATION_3
	audio_wait_6
	note NOTE_DURATION_3, B_0
	audio_wait_12
	note C_1
	audio_wait_12
	note NOTE_DURATION_3
	audio_wait_12
	audio_call .sub2
	note NOTE_DURATION_3, G_0, 22
	audio_wait_12
	note F#0
	audio_wait_12
	note G_0
	audio_wait_12
	note F#0
	audio_wait_12
	note G_0
	audio_wait_6
	note NOTE_DURATION_3
	audio_wait_6
	note NOTE_DURATION_3, F#0
	audio_wait_12
	note G_0
	audio_wait_12
	note NOTE_DURATION_3
	audio_wait_12
	audio_call .sub3
	note NOTE_DURATION_3, A_0, 22
	audio_wait_12
	note G#0
	audio_wait_12
	note A_0
	audio_wait_12
	note G#0
	audio_wait_12
	note A_0
	audio_wait_6
	note NOTE_DURATION_3
	audio_wait_6
	note NOTE_DURATION_3, G#0
	audio_wait_12
	note A_0
	audio_wait_12
	note NOTE_DURATION_3
	audio_wait_12
	note NOTE_DURATION_3, D_1
	audio_wait_12
	note C#1
	audio_wait_12
	note D_1
	audio_wait_12
	note C#1
	audio_wait_12
	note D_1
	audio_wait_6
	note NOTE_DURATION_3
	audio_wait_6
	note NOTE_DURATION_3, C#1
	audio_wait_12
	note D_1
	audio_wait_12
	note C#1
	audio_wait_12
	note D_1
	audio_wait_96
	audio_call .sub2
	audio_call .sub1
	audio_call .sub2
	audio_call .sub1
.sub4
	note NOTE_DURATION_3, G_1, 22
	audio_wait_12
	note F#1
	audio_wait_12
	note G_1
	audio_wait_12
	note F#1
	audio_wait_12
	note G_1
	audio_wait_12
	note F#1
	audio_wait_12
	note G_1
	audio_wait_12
	note F#1
	audio_wait_12
	audio_ret

	note G_1
	audio_wait_12
	note F#1
	audio_wait_12
	note G_1
	audio_wait_12
	note F#1
	audio_wait_12
	note G_1
	audio_wait_6
	note NOTE_DURATION_3
	audio_wait_6
	note NOTE_DURATION_3, F#1
	audio_wait_12
	note G_1
	audio_wait_12
	note F#1
	audio_wait_12
	audio_call .sub4
	note NOTE_DURATION_3, G_1, 22
	audio_wait_6
	note NOTE_DURATION_3
	audio_wait_6
	note NOTE_DURATION_3, F#1
	audio_wait_12
	note G_1
	audio_wait_72
	audio_jump .loop
.end
	audio_end

Music_TheVolcanosBaseNight_Ch3:
	semitone_offset 0

.loop
	wave WAVE_5E
	volume 108
	note NOTE_DURATION_3, C_0, 22
	audio_wait_48
	note NOTE_DURATION_3
	audio_wait_48
.sub1
	note NOTE_DURATION_3, C_0, 22
	audio_wait_48
	note NOTE_DURATION_3
	audio_wait_6
	note NOTE_DURATION_3
	audio_wait_42
	audio_ret

.sub2
	note NOTE_DURATION_3, C_0, 22
	audio_wait_48
	note NOTE_DURATION_3
	audio_wait_48
	audio_ret

	audio_call .sub1
	audio_call .sub2
	audio_call .sub1
	audio_call .sub2
	audio_call .sub1
	audio_call .sub2
	audio_call .sub1
.sub3
	note NOTE_DURATION_3, F_0, 22
	audio_wait_48
	note NOTE_DURATION_3
	audio_wait_48
	audio_ret

	note NOTE_DURATION_3
	audio_wait_48
	note NOTE_DURATION_3
	audio_wait_6
	note NOTE_DURATION_3
	audio_wait_42
	audio_call .sub2
	audio_call .sub1
	audio_call .sub3
	note NOTE_DURATION_3, D_0, 22
	audio_wait_48
	note NOTE_DURATION_3
	audio_wait_6
	note NOTE_DURATION_3
	audio_wait_42
	note NOTE_DURATION_3, G_0
	audio_wait_48
	note NOTE_DURATION_3
	audio_wait_6
	note NOTE_DURATION_3
	audio_wait_42
	note NOTE_DURATION_3
	audio_wait_12
	note NOTE_DURATION_4, D_1
	audio_wait_4
	note D#1
	audio_wait_4
	note D_1
	audio_wait_4
	note NOTE_DURATION_3, C#1
	audio_wait_12
	note D_1
	audio_wait_12
	note G_1
	audio_wait_24
	note NOTE_DURATION_6, G_0
	audio_wait_6
	note F_0
	audio_wait_6
	note E_0
	audio_wait_6
	note D_0
	audio_wait_6
	audio_call .sub2
	audio_call .sub1
	audio_call .sub2
	audio_call .sub1
.sub4
	note NOTE_DURATION_3, C_1, 22
	audio_wait_48
	note NOTE_DURATION_3
	audio_wait_48
	audio_ret

	note NOTE_DURATION_3
	audio_wait_48
	note NOTE_DURATION_3
	audio_wait_6
	note NOTE_DURATION_3
	audio_wait_42
	audio_call .sub4
	note NOTE_DURATION_3, C_1, 22
	audio_wait_6
	note NOTE_DURATION_3
	audio_wait_30
	note NOTE_DURATION_3, G_0
	audio_wait_12
	note C_1
	audio_wait_24
	note C_0
	audio_wait_24
	audio_jump .loop
.end
	audio_end

Music_TheVolcanosBaseNight:
	db $3, $2
	dw Music_TheVolcanosBaseNight_Ch1
	dw Music_TheVolcanosBaseNight_Ch2
	dw Music_TheVolcanosBaseNight_Ch3

; unused?
	dw Music_TheVolcanosBaseNight_Ch1.loop
	dw Music_TheVolcanosBaseNight_Ch2.loop
	dw Music_TheVolcanosBaseNight_Ch3.loop

	dw Music_TheVolcanosBaseNight_Ch1.end
	dw Music_TheVolcanosBaseNight_Ch2.end
	dw Music_TheVolcanosBaseNight_Ch3.end
